<?xml version="1.0" encoding="utf-8"?>
<!DOCTYPE svg PUBLIC "-//W3C//DTD SVG 1.1//EN" "http://www.w3.org/Graphics/SVG/1.1/DTD/svg11.dtd">
<svg version="1.1" id="Layer_1" xmlns="http://www.w3.org/2000/svg" xmlns:xlink="http://www.w3.org/1999/xlink" x="0px" y="0px"
	 width="199.74px" height="86.207px" viewBox="0 0 199.74 86.207" enable-background="new 0 0 199.74 86.207" xml:space="preserve">
<path fill-rule="evenodd" clip-rule="evenodd" fill="#393534" d="M97.729,30.238c0.729-0.399,3.111-0.399,3.84,0
	C100.289,30.238,99.01,30.238,97.729,30.238z"/>
<path fill-rule="evenodd" clip-rule="evenodd" fill="#393534" d="M95.81,30.718c0.349-0.371,0.937-0.504,1.68-0.48
	C97.303,30.8,96.329,31.208,95.81,30.718z"/>
<path fill-rule="evenodd" clip-rule="evenodd" fill="#393534" d="M95.569,30.718c-0.057,0.903-0.983,0.936-1.68,1.2
	c-0.095-0.673,1.864-0.511,1.2-0.96C95.096,30.725,95.383,30.771,95.569,30.718z"/>
<path fill="#990000" d="M116.171,21.87h4.08v14.563h7.148v3.414h-11.229V21.87z"/>
<path fill="#990000" d="M133.186,23.177c0,1.12-0.854,2.026-2.188,2.026c-1.279,0-2.133-0.906-2.106-2.026
	c-0.026-1.174,0.827-2.054,2.134-2.054S133.159,22.003,133.186,23.177z M128.998,39.847V26.804h4.055v13.043H128.998z"/>
<path fill="#990000" d="M135.639,30.965c0-1.627-0.054-3.014-0.106-4.161h3.521l0.187,1.787h0.08c0.533-0.827,1.867-2.08,4.027-2.08
	c2.668,0,4.668,1.76,4.668,5.601v7.735h-4.054v-7.229c0-1.68-0.587-2.827-2.055-2.827c-1.12,0-1.786,0.773-2.054,1.521
	c-0.106,0.267-0.159,0.64-0.159,1.014v7.521h-4.055V30.965z"/>
<path fill="#990000" d="M162.896,35.66c0,1.707,0.054,3.094,0.106,4.188h-3.521l-0.187-1.841h-0.08
	c-0.507,0.801-1.733,2.134-4.081,2.134c-2.641,0-4.588-1.653-4.588-5.681v-7.655h4.081v7.015c0,1.895,0.613,3.041,2.027,3.041
	c1.12,0,1.761-0.773,2.027-1.414c0.106-0.239,0.133-0.56,0.133-0.88v-7.762h4.081V35.66z"/>
<path fill="#990000" d="M168.575,26.804l1.28,2.161c0.374,0.666,0.721,1.333,1.067,1.946h0.053c0.347-0.693,0.667-1.36,1.014-2
	l1.147-2.107h4.4l-4.294,6.215l4.348,6.828h-4.588l-1.307-2.347c-0.374-0.641-0.693-1.308-1.014-1.975h-0.08
	c-0.32,0.693-0.667,1.334-0.987,1.975l-1.227,2.347h-4.454l4.428-6.642l-4.321-6.401H168.575z"/>
<path fill="#990000" d="M116.006,45.062c1.307-0.213,3.254-0.373,5.414-0.373c2.668,0,4.535,0.4,5.814,1.413
	c1.068,0.854,1.654,2.107,1.654,3.761c0,2.294-1.627,3.868-3.174,4.428v0.08c1.254,0.507,1.947,1.707,2.4,3.361
	c0.561,2.026,1.121,4.374,1.467,5.067h-4.16c-0.293-0.533-0.721-1.974-1.254-4.188c-0.48-2.24-1.254-2.854-2.908-2.881h-1.227v7.068
	h-4.027V45.062z M120.033,52.797h1.602c2.025,0,3.227-1.014,3.227-2.587c0-1.654-1.121-2.481-2.988-2.508
	c-0.986,0-1.547,0.08-1.84,0.134V52.797z"/>
<path fill="#990000" d="M147.504,53.625c0,5.895-3.572,9.468-8.828,9.468c-5.334,0-8.455-4.027-8.455-9.148
	c0-5.388,3.441-9.415,8.748-9.415C144.49,44.529,147.504,48.663,147.504,53.625z M134.516,53.864c0,3.521,1.654,6.002,4.375,6.002
	c2.746,0,4.32-2.614,4.32-6.108c0-3.228-1.547-6.001-4.348-6.001C136.115,47.756,134.516,50.37,134.516,53.864z"/>
<path fill="#990000" d="M164.707,55.917c-0.08-2.16-0.16-4.774-0.16-7.388h-0.08c-0.561,2.294-1.307,4.854-2,6.961l-2.188,7.016
	h-3.174l-1.922-6.936c-0.586-2.134-1.199-4.694-1.627-7.041h-0.053c-0.107,2.427-0.188,5.201-0.32,7.441l-0.32,6.828h-3.76
	l1.146-17.978h5.414l1.76,6.002c0.561,2.054,1.121,4.32,1.521,6.428h0.08c0.506-2.08,1.119-4.454,1.707-6.455l1.92-5.975h5.309
	l0.986,17.978h-3.975L164.707,55.917z"/>
<path fill="#990000" d="M116.424,67.936h4.027v7.949h0.08c0.398-0.694,0.826-1.334,1.227-1.975l4.08-5.975h4.988l-5.947,7.655
	l6.268,10.322h-4.748l-4.4-7.762l-1.547,1.894v5.868h-4.027V67.936z"/>
<path fill="#990000" d="M136.186,69.244c0,1.12-0.854,2.026-2.188,2.026c-1.281,0-2.135-0.906-2.107-2.026
	c-0.027-1.174,0.826-2.054,2.135-2.054C135.332,67.19,136.158,68.07,136.186,69.244z M131.998,85.914V72.871h4.055v13.043H131.998z"
	/>
<path fill="#990000" d="M143.172,69.324v3.547h2.908v2.987h-2.908v4.721c0,1.574,0.375,2.294,1.602,2.294
	c0.559,0,0.799-0.026,1.199-0.106L146,85.833c-0.533,0.214-1.494,0.373-2.641,0.373c-1.307,0-2.4-0.479-3.041-1.146
	c-0.746-0.773-1.119-2.027-1.119-3.867v-5.335h-1.734v-2.987h1.734v-2.454L143.172,69.324z"/>
<path fill="#990000" d="M157.414,85.593c-0.721,0.32-2.08,0.613-3.627,0.613c-4.215,0-6.908-2.587-6.908-6.694
	c0-3.814,2.613-6.935,7.469-6.935c1.066,0,2.24,0.187,3.094,0.507l-0.641,3.014c-0.48-0.213-1.201-0.4-2.268-0.4
	c-2.133,0-3.52,1.521-3.494,3.654c0,2.4,1.602,3.654,3.574,3.654c0.961,0,1.707-0.16,2.32-0.427L157.414,85.593z"/>
<path fill="#990000" d="M158.986,66.976h4.055v7.441h0.053c0.428-0.56,0.961-1.014,1.602-1.333c0.613-0.32,1.359-0.507,2.107-0.507
	c2.586,0,4.561,1.787,4.561,5.708v7.628h-4.055v-7.175c0-1.707-0.586-2.881-2.107-2.881c-1.066,0-1.732,0.693-2.027,1.414
	c-0.105,0.267-0.133,0.613-0.133,0.906v7.735h-4.055V66.976z"/>
<path fill="#990000" d="M177.07,80.686c0.133,1.68,1.787,2.48,3.68,2.48c1.387,0,2.508-0.187,3.602-0.533l0.533,2.747
	c-1.334,0.533-2.961,0.826-4.721,0.826c-4.428,0-6.963-2.587-6.963-6.668c0-3.307,2.055-6.961,6.588-6.961
	c4.215,0,5.816,3.28,5.816,6.508c0,0.693-0.08,1.307-0.135,1.601H177.07z M181.844,77.912c0-0.986-0.426-2.641-2.293-2.641
	c-1.707,0-2.4,1.547-2.508,2.641H181.844z"/>
<path fill="#990000" d="M187.363,77.032c0-1.627-0.053-3.014-0.105-4.161h3.52l0.188,1.787h0.08c0.533-0.827,1.867-2.08,4.027-2.08
	c2.668,0,4.668,1.76,4.668,5.601v7.735h-4.055v-7.229c0-1.68-0.586-2.827-2.055-2.827c-1.119,0-1.785,0.773-2.053,1.521
	c-0.107,0.267-0.16,0.64-0.16,1.014v7.521h-4.055V77.032z"/>
<g>
	<path fill-rule="evenodd" clip-rule="evenodd" fill="#FFFFFF" d="M43.684,46.558c1.522-0.558,4.079-0.082,6-0.24
		C48.162,46.875,45.606,46.399,43.684,46.558z"/>
	<path fill-rule="evenodd" clip-rule="evenodd" fill="#393534" d="M36.004,76.078c0.418,0.019,0.746-0.054,0.96-0.24
		c3.198-0.007-1.854,0.781-3.12,0.721c0-0.08,0-0.16,0-0.24C34.81,76.483,35.214,76.087,36.004,76.078z"/>
	<path fill-rule="evenodd" clip-rule="evenodd" fill="#393534" d="M27.125,76.318c-1.604,0.399-4.877,0.399-6.48,0
		C22.804,76.318,24.964,76.318,27.125,76.318z"/>
	<path fill-rule="evenodd" clip-rule="evenodd" fill="#9D908B" d="M32.404,85.917c0.333-0.547,1.67-0.089,2.4-0.239
		C34.472,86.225,33.134,85.767,32.404,85.917z"/>
	<path fill-rule="evenodd" clip-rule="evenodd" fill="#9D908B" d="M56.404,46.798c-0.279,0.821-2.016,0.123-3.84,0
		c-5.964-0.4-16.605,0.378-20.88,0.96c-1.696,1.104-4.612,0.988-6.48,1.92c-0.08,0-0.16,0-0.24,0c-0.636-0.932-1.085,0.382-1.92,0
		C31.833,46.577,45.068,45.072,56.404,46.798z M49.684,46.318c-1.921,0.158-4.478-0.318-6,0.24
		C45.606,46.399,48.162,46.875,49.684,46.318z"/>
	<path fill-rule="evenodd" clip-rule="evenodd" fill="#9D908B" d="M13.684,53.757c0.269-0.295,0.209-0.492-0.24-0.479
		c1.418-1.142,3.497-1.623,5.28-2.4C18.245,52.325,15.191,52.61,13.684,53.757z"/>
	<path fill-rule="evenodd" clip-rule="evenodd" fill="#9D908B" d="M12.484,54.238c-0.481-0.695-0.889,0.692-1.68,0.48
		c0.461-0.82,1.439-1.121,2.4-1.44c-0.127,0.193-0.25,0.39-0.24,0.72C12.77,54.043,12.725,54.239,12.484,54.238z"/>
	<path fill-rule="evenodd" clip-rule="evenodd" fill="#9D908B" d="M6.244,58.078c0.829-1.251,1.768-2.393,3.36-2.88
		c-0.071,0.489-0.649,0.471-0.72,0.96c-0.023,0.617-0.937,0.343-0.96,0.96C6.978,57.051,7.19,58.144,6.244,58.078z"/>
	<path fill-rule="evenodd" clip-rule="evenodd" fill="#9D908B" d="M2.645,60.718c0.779-0.98,1.659-1.861,2.64-2.641
		C4.505,59.058,3.625,59.938,2.645,60.718z"/>
	<path fill-rule="evenodd" clip-rule="evenodd" fill="#9D908B" d="M0.244,68.158c-0.655-1.938,0.098-4.539,1.2-5.52
		C0.627,64.061,0.064,65.738,0.244,68.158z"/>
	<path fill-rule="evenodd" clip-rule="evenodd" fill="#9D908B" d="M55.444,80.398c6.431-3.529,11.659-8.285,13.681-15.601
		c-11.748,8.146-34.607,15.977-56.161,12c-2.609-0.48-5.441-1.555-7.92-2.64c0.408,2.073,2.957,4.082,4.56,5.76
		c-3.9-2.659-6.138-6.982-9.12-10.56c2.592,3.691,6.98,6.447,12.72,6.24c0.363,0.597,2.067-0.147,2.4,0.479
		c-2.641-0.109,1.531,0.635,2.64,0.72c4.469,0.345,11.784-0.024,15.6-0.479c0,0.08,0,0.16,0,0.24
		c1.267,0.061,6.318-0.728,3.12-0.721c-0.214,0.187-0.542,0.259-0.96,0.24c-0.007-0.233-0.294-0.187-0.48-0.24
		c4.193-0.927,8.841-1.398,12.72-2.64c1.466-0.214,2.696-0.664,4.08-0.96c-2.486,1.114-5.461,1.738-8.4,2.4
		c3.292,0.17,6.736-1.584,9.84-2.4c-0.204-0.704-0.604,0.312-1.2,0c0.736-0.704,2.273-0.606,2.88-1.44
		c1.761-0.238,2.837-1.163,4.319-1.68c-0.146,0.214-0.289,0.43,0,0.48c4.045-1.557,8.412-4.068,10.08-7.2
		c1.115-0.645,1.934-1.588,2.4-2.88c-2.52,4.507-3.645,9.644-6.721,13.439C62.887,76.212,59.35,78.453,55.444,80.398z
		 M41.284,75.118c-0.802,0.317-2.029,0.211-2.64,0.72C39.824,75.897,40.735,75.689,41.284,75.118z M55.444,71.518
		c0.612-0.006,2.296-1.033,1.681-0.721C56.27,70.744,55.686,70.959,55.444,71.518z"/>
	<path fill-rule="evenodd" clip-rule="evenodd" fill="#9D908B" d="M72.484,58.558c0.094-1.026-0.381-2.621,0.721-2.641
		C72.375,56.209,73.061,58.013,72.484,58.558z"/>
	<path fill-rule="evenodd" clip-rule="evenodd" fill="#9D908B" d="M82.084,47.758c0.576-0.944,1.584-1.456,2.16-2.4
		c0.146-0.014,0.285-0.036,0.24-0.24c0.193-0.045,0.238-0.241,0.48-0.24C84.184,46.017,83.094,46.847,82.084,47.758z"/>
	<path fill-rule="evenodd" clip-rule="evenodd" fill="#393534" d="M105.125,31.678c0.795,0.084,0.377,1.383,0.479,2.16
		c-0.307-0.013-0.332-0.308-0.719-0.24c0.053,0.187,0.201,0.279,0.48,0.24c-0.078,0.562-1.047,0.233-1.201,0.72
		c-0.564-0.003,0.088-0.655,0.48-0.48c-0.004-0.317-0.42-0.219-0.48-0.48c-0.055,0.72-1.4,0.268-2.879,0.48
		c0.1-0.54,1.314,0.036,1.199-0.72c-5.35,1.371-9.98,3.46-13.68,6.48c3.596-3.359,10.141-6.831,16.561-7.68
		c-0.014-0.146-0.037-0.284-0.24-0.24C105.125,31.838,105.125,31.758,105.125,31.678z"/>
	<path fill-rule="evenodd" clip-rule="evenodd" fill="#141212" d="M105.125,31.678c0,0.08,0,0.16,0,0.24
		c0.203-0.044,0.227,0.093,0.24,0.24c-6.42,0.849-12.965,4.321-16.561,7.68c3.699-3.02,8.33-5.109,13.68-6.48
		c0.115,0.756-1.1,0.18-1.199,0.72c1.479-0.212,2.824,0.24,2.879-0.48c0.061,0.261,0.477,0.163,0.48,0.48
		c-0.393-0.175-1.045,0.477-0.48,0.48c0.154-0.487,1.123-0.158,1.201-0.72c-0.279,0.039-0.428-0.053-0.48-0.24
		c0.387-0.067,0.412,0.227,0.719,0.24c0,0.24,0,0.48,0,0.72c-8.111,1.249-13.732,4.987-19.199,8.88
		c-0.457-0.207,0.26-0.143,0.24-0.48c-0.924,0.457-0.984,1.217-2.16,2.16c0.045,0.204-0.094,0.227-0.24,0.24
		c-2.594,1.284-1.84,2.656-4.801,3.84c0.389,0.75,0.762-0.492,1.201-0.48c-1.432,1.769-3.045,3.356-4.801,4.8
		c-0.348-0.106,0.025-0.211,0-0.48c-0.355,0.125-0.604,0.355-0.959,0.48c0.104,0.355,0.307-0.095,0.719,0
		c-0.52,1.043-0.953,0.157-0.959,1.2c-0.08,0-0.16,0-0.24,0c-0.99,0.172-0.406,0.667-1.92,0.96c-0.049-1-1.311-2.039-0.961-2.641
		c-1.209-0.479-2.633-2.581-4.559-3.12c0.502-0.937,1.949-0.93,2.4-1.92c9.182-5.778,16.721-13.198,27.84-17.04
		c0.664,0.449-1.295,0.287-1.201,0.96c0.697-0.264,1.623-0.297,1.68-1.2c0.08,0,0.16,0,0.24,0c0.52,0.491,1.494,0.083,1.68-0.48
		c0.08,0,0.16,0,0.24,0c1.281,0,2.561,0,3.84,0C104.303,30.58,105.043,30.8,105.125,31.678z M73.443,51.358
		c0.436-0.457,2.209-0.818,1.682-1.44C74.846,50.679,73.635,50.509,73.443,51.358z"/>
	<path fill-rule="evenodd" clip-rule="evenodd" fill="#393534" d="M84.484,45.118c1.176-0.943,1.236-1.703,2.16-2.16
		c0.02,0.337-0.697,0.273-0.24,0.48c-0.379,0.581-0.859,1.061-1.439,1.44C84.723,44.877,84.678,45.072,84.484,45.118z"/>
	<path fill-rule="evenodd" clip-rule="evenodd" fill="#393534" d="M80.645,48.718c-0.439-0.012-0.812,1.23-1.201,0.48
		c2.961-1.184,2.207-2.556,4.801-3.84c-0.576,0.944-1.584,1.456-2.16,2.4C81.434,47.907,81.486,48.76,80.645,48.718z"/>
	<path fill-rule="evenodd" clip-rule="evenodd" fill="#393534" d="M74.645,54.718c0.006-1.043,0.439-0.157,0.959-1.2
		c-0.412-0.095-0.615,0.355-0.719,0c0.355-0.125,0.604-0.355,0.959-0.48c0.025,0.27-0.348,0.374,0,0.48
		C75.547,54.02,75.146,54.419,74.645,54.718z"/>
	<path fill-rule="evenodd" clip-rule="evenodd" fill="#393534" d="M69.365,47.998c-0.451,0.991-1.898,0.983-2.4,1.92
		c1.926,0.539,3.35,2.641,4.559,3.12c-0.35,0.602,0.912,1.641,0.961,2.641c1.514-0.293,0.93-0.788,1.92-0.96
		c-0.299,0.502-0.697,0.901-1.199,1.199c-1.102,0.02-0.627,1.614-0.721,2.641c-0.186,0.213-0.258,0.542-0.24,0.96
		c-0.467,1.292-1.285,2.235-2.4,2.88c-1.523,1.596-3.312,2.927-5.279,4.08c3.281-2.682,7.857-5.205,7.199-11.04
		c-0.186,0.053-0.279,0.201-0.24,0.479c-0.488-3.171-3.918-5.316-7.199-6.479c0-0.241,0.195-0.286,0.24-0.48
		c0.67,0.21,1.186,0.574,1.92,0.72C67.596,49.269,68.377,48.531,69.365,47.998z"/>
	<path fill-rule="evenodd" clip-rule="evenodd" fill="#393534" d="M56.404,46.798c1.982,0.417,4.104,0.697,5.76,1.44
		c-1.572,0.489-4.16-1.246-6-0.48c0.062,0.374,0.527,0.167,0.721,0c-1.727,1.123-7.874-0.672-11.041,0.48
		c-2.595-0.447-8.518,0.002-12.24,0.48c0.021,0.378,0.612,0.188,0.48,0.72c-0.301-0.334-1.357-0.104-0.72-0.72
		c-0.776-0.296-0.183,0.777-0.96,0.48c-0.005,0.565,0.414,0.707,0.24,1.44c-0.96-0.463,0.008,1.112-0.72,1.44
		c0.097,0.463,1.099,0.021,0.72,0.96c0.454,0.054,0.529-0.271,0.96-0.24c-0.95,0.784,0.078,0.803,0.24,1.681
		c-0.307-0.014-0.333-0.308-0.72-0.24c-0.031,0.431,0.238,0.562,0.72,0.48c-0.217,0.418-0.537,0.924-0.96,0.479
		c-0.098,0.578,0.438,0.521,0.24,1.2c-0.49-0.07-0.471-0.649-0.96-0.72c-0.054,0.453,0.27,0.529,0.24,0.96
		c-1.519-0.567-2.287,0.976-3.84,0.72c0.103,0.377,0.755,0.205,0.48,0.96c-0.655-0.021-0.483,0.399-0.96,0
		c-0.001-0.134,0.194-0.272,0.24,0c0.867-0.604-1.518-1.226-1.2,0c-0.255-1.339-2.724,1.077-2.64-0.72
		c-0.372,0.411-0.358,2.44-0.48,0.479c-0.431-0.03-0.562,0.238-0.48,0.72c-0.505-0.215-1.067-0.373-1.44-0.72
		c0.378,0.635,0.267,0.745-0.48,0.48c-0.297,0.776,0.776,0.183,0.48,0.96c-0.777-0.297-0.184,0.776-0.96,0.479
		c0.855,0.584,0.267,2.613,0.96,3.36c-0.49-0.07-0.471-0.649-0.96-0.72c-0.793,0.359,0.499,0.587,0.24,1.199
		c-1.049-1.012-0.371,1.438-2.64,0.96c0.616,0.76-0.51,0.976-0.96,0.96c-0.845-0.028-0.476,0.837-0.72,0.961
		c-0.237,0.119-0.249-0.479-0.24-0.48c-1.241,0.082-2.866,2.261-4.56,1.44c-0.433-1.366-1.529-0.579-2.4-1.44
		c0.382-0.408,0.358-1.49-0.24-2.16c0.285-0.982,1.292-0.872,0.72-2.16c0.853-0.373,0.145,0.815,0.72,0.721
		c0.594-0.231-0.331-0.922,0-1.681c0.753-0.271,0.634,0.069,1.2-0.239c-0.04-0.28-0.379-0.261-0.72-0.24
		c0.545-0.774,3.636-1.559,2.64-2.641c0.625-0.096,1.195-0.374,1.2-0.96c0.628-0.046,0.298,1.179-0.48,0.96
		c-0.013,0.413,0.185,0.615,0.48,0.721c-0.016-0.412,0.375-0.597,1.44-0.48c-0.596-0.422-0.392-0.438,0.24-0.72
		c0.645-0.165,0.464,0.496,0.72,0.72c0.637,0.077-0.224-1.345,0.72-0.96c-0.447,1.569,1.314,0.259,0.24,1.2
		c0.024,0.463,0.895-0.373,1.2,0.24c-0.9-0.431,0.165-1.334-0.48-1.92c0.651-0.345,1.558,0.085,1.68-1.2
		c-0.003-0.564-0.655,0.088-0.48,0.479c-0.745-0.535-0.424-2.136-0.96-2.88c-0.801,0.506-3.325,0.589-3.84,1.2
		c-0.772,0.917,0.33,0.198-0.24,0.24c-0.88,0.064-6.3,3.173-6.72,3.359c-1.246,0.557-1.863,2.177-3.12,1.681
		c0.255-1.265,1.768-1.272,2.16-2.4c0.023-0.617,0.937-0.343,0.96-0.96c1.339-0.501,2.438-1.241,3.6-1.92
		c0.241,0.001,0.286-0.194,0.48-0.24c0.388,0.067,0.413-0.227,0.72-0.24c1.507-1.147,4.561-1.433,5.04-2.879
		c1.783-0.057,2.69-0.99,4.32-1.2c0.835,0.382,1.284-0.932,1.92,0c-2.101,0.928-3.88,1.145-5.76,1.92
		c1.64,0.901,5.041-1.536,7.68-1.68c-0.458-0.599-1.042,0.299-1.68-0.24c1.868-0.932,4.784-0.816,6.48-1.92
		c4.275-0.582,14.917-1.36,20.88-0.96C54.389,46.92,56.125,47.619,56.404,46.798z M27.125,49.198c0.075,1.363,3.013-0.435,2.16,0
		C28.301,48.964,27.747,49.792,27.125,49.198z"/>
	<path fill-rule="evenodd" clip-rule="evenodd" fill="#141212" d="M7.924,57.118c-0.393,1.128-1.905,1.136-2.16,2.4
		c1.257,0.496,1.875-1.124,3.12-1.681c0.42-0.187,5.84-3.295,6.72-3.359c0.569-0.042-0.533,0.677,0.24-0.24
		c0.515-0.611,3.039-0.694,3.84-1.2c0.536,0.744,0.216,2.345,0.96,2.88c-0.175-0.392,0.477-1.044,0.48-0.479
		c-0.123,1.285-1.029,0.855-1.68,1.2c0.645,0.586-0.42,1.489,0.48,1.92c-0.306-0.613-1.176,0.223-1.2-0.24
		c1.075-0.941-0.687,0.369-0.24-1.2c-0.944-0.385-0.083,1.037-0.72,0.96c-0.256-0.224-0.075-0.885-0.72-0.72
		c-0.632,0.281-0.836,0.298-0.24,0.72c-1.064-0.116-1.456,0.068-1.44,0.48c-0.295-0.105-0.493-0.308-0.48-0.721
		c0.778,0.219,1.108-1.006,0.48-0.96c-0.005,0.586-0.575,0.864-1.2,0.96c0.996,1.082-2.095,1.866-2.64,2.641
		c0.34-0.021,0.68-0.04,0.72,0.24c-0.566,0.309-0.446-0.032-1.2,0.239c-0.331,0.759,0.594,1.449,0,1.681
		c-0.575,0.095,0.133-1.094-0.72-0.721c0.572,1.288-0.435,1.178-0.72,2.16c0.598,0.67,0.622,1.752,0.24,2.16
		c0.871,0.861,1.967,0.074,2.4,1.44c1.694,0.82,3.319-1.358,4.56-1.44c-0.008,0.001,0.003,0.6,0.24,0.48
		c0.244-0.124-0.125-0.989,0.72-0.961c0.45,0.016,1.576-0.2,0.96-0.96c2.27,0.479,1.591-1.972,2.64-0.96
		c0.259-0.612-1.033-0.84-0.24-1.199c0.489,0.07,0.47,0.649,0.96,0.72c-0.693-0.747-0.104-2.776-0.96-3.36
		c0.776,0.297,0.183-0.776,0.96-0.479c0.296-0.777-0.777-0.184-0.48-0.96c0.747,0.265,0.858,0.154,0.48-0.48
		c0.373,0.347,0.935,0.505,1.44,0.72c-0.082-0.481,0.049-0.75,0.48-0.72c0.122,1.961,0.108-0.068,0.48-0.479
		c-0.084,1.797,2.385-0.619,2.64,0.72c-0.318-1.226,2.066-0.604,1.2,0c-0.045-0.272-0.241-0.134-0.24,0
		c0.477,0.399,0.305-0.021,0.96,0c0.275-0.755-0.377-0.583-0.48-0.96c1.553,0.256,2.321-1.287,3.84-0.72
		c0.03-0.431-0.294-0.507-0.24-0.96c0.489,0.07,0.47,0.649,0.96,0.72c0.198-0.679-0.338-0.622-0.24-1.2
		c0.423,0.444,0.743-0.062,0.96-0.479c-0.481,0.081-0.751-0.05-0.72-0.48c0.387-0.067,0.413,0.227,0.72,0.24
		c-0.162-0.878-1.189-0.896-0.24-1.681c-0.431-0.03-0.506,0.294-0.96,0.24c0.379-0.938-0.624-0.497-0.72-0.96
		c0.728-0.328-0.24-1.903,0.72-1.44c0.173-0.733-0.246-0.875-0.24-1.44c0.777,0.297,0.184-0.776,0.96-0.48
		c-0.637,0.616,0.419,0.386,0.72,0.72c0.132-0.532-0.458-0.342-0.48-0.72c3.722-0.478,9.645-0.927,12.24-0.48
		c3.167-1.152,9.314,0.643,11.041-0.48c-0.193,0.167-0.658,0.374-0.721,0c1.84-0.766,4.428,0.969,6,0.48
		c0.977,0.063,1.629,0.452,2.4,0.72c-0.045,0.194-0.24,0.239-0.24,0.48c3.281,1.164,6.711,3.309,7.199,6.479
		c-0.039-0.278,0.055-0.427,0.24-0.479c0.658,5.835-3.918,8.358-7.199,11.04c-1.459,1.021-3.156,1.805-4.801,2.64
		c-1.482,0.517-2.559,1.441-4.319,1.68c-2.374,0.826-4.863,1.537-7.2,2.4c-3.878,1.241-8.527,1.713-12.72,2.64
		c-3.064-0.104-5.217,0.704-8.4,0.48c-2.16,0-4.32,0-6.48,0c-1.94,0.18-3.234-0.286-5.04-0.24c-0.333-0.627-2.037,0.117-2.4-0.479
		c-5.575-1.705-11.635-2.926-12.48-9.36c0.499,0.062,0.066,1.055,0.48,1.2c-0.889-4.245,3.133-7.184,4.8-9.12
		c0.204,0.044,0.227-0.094,0.24-0.24C7.19,58.144,6.978,57.051,7.924,57.118z M37.204,55.438c-1.108-0.072-0.66-0.728-1.2,0.24
		c-0.034-0.747-0.806,0.017-0.96-0.96c-0.456,0.875,0.327,1.495-0.24,2.159c-0.984-1.111-0.721,0.646-2.16-0.239
		c-0.033,0.832,1.216,0.384,1.2,1.199c-1.032-0.113-0.307,0.646-0.72,0.721c-0.003-0.317-0.421-0.22-0.48-0.48
		c0.186-0.054,0.473-0.007,0.48-0.24c-0.49-0.07-0.471-0.649-0.96-0.72c0.728,1.111-0.419,0.767-0.96,1.2
		c0.306,0.612,1.176-0.223,1.2,0.24c0,0.16,0,0.319,0,0.479c-0.454,0.054-0.529-0.271-0.96-0.24c1.412,1.363-1.931,0.854-0.24,1.921
		c-0.448-0.192-0.879-0.401-1.44-0.48c-0.034,1.054-0.547,1.633,0.48,1.92c-0.797-0.294-1.368,0.842-0.96,0.96
		c0.235-0.735,0.809,0.107,0.96,0.24c0.73-0.423-0.655-0.743,0-0.96c5.054,0.399,14.407-1.726,21.36-0.96
		c-0.187-0.053-0.279-0.201-0.24-0.48c1.859,0.789,1.389-1.136,2.4-1.92c-0.613,0.614,0.397,1.508,0,0.96
		c0.067-0.477,0.556-0.975,0.72-1.68c-0.002,0.011-0.95,0.075-0.72-0.48c0.252-0.608,1.347,0.313-0.24-0.479
		c-0.172-0.651,1.132,0.172,0.96-0.48c-0.704-0.226-0.892-0.358-1.2-0.479c0.389,0.172,0.389-1.132,0-0.96
		c-0.429,0.584-0.886,0.127-0.48-0.48c-1.056-0.037-2.536,0.084-1.92-0.96c-0.755-0.274-0.583,0.377-0.96,0.48
		c-0.945-1.229-1.942-1.228-3.12-1.2c0.225-0.005-1.234,0.163-1.68,0.24c-0.232-0.763-1.223-0.448-2.16-0.96
		c0.124,0.61,0.409,0.931-0.48,0.96c0-0.24,0-0.48,0-0.721c-0.981,0.219-1.473,0.928-2.4,1.2c0.269-0.346,0.259-0.585-0.24-0.72
		C39.561,55.033,36.117,53.747,37.204,55.438z"/>
	<path fill-rule="evenodd" clip-rule="evenodd" fill="#141212" d="M24.964,49.678c0.08,0,0.16,0,0.24,0
		c0.638,0.539,1.222-0.359,1.68,0.24c-2.639,0.145-6.041,2.582-7.68,1.68C21.084,50.823,22.863,50.606,24.964,49.678z"/>
	<path fill-rule="evenodd" clip-rule="evenodd" fill="#141212" d="M29.284,49.198c0.854-0.435-2.085,1.363-2.16,0
		C27.747,49.792,28.301,48.964,29.284,49.198z"/>
	<path fill-rule="evenodd" clip-rule="evenodd" fill="#393534" d="M48.244,73.198c2.337-0.863,4.826-1.574,7.2-2.4
		c-0.606,0.834-2.144,0.736-2.88,1.44c-0.08,0-0.16,0-0.24,0C50.94,72.534,49.71,72.984,48.244,73.198z"/>
	<path fill-rule="evenodd" clip-rule="evenodd" fill="#393534" d="M6.004,58.318c-1.667,1.937-5.689,4.875-4.8,9.12
		c-0.414-0.146,0.019-1.139-0.48-1.2c0.845,6.435,6.905,7.655,12.48,9.36c-5.74,0.207-10.128-2.549-12.72-6.24
		c0.077-0.557-0.039-0.922-0.24-1.2c-0.18-2.42,0.383-4.097,1.2-5.52c0.145-0.896,1.103-0.978,1.2-1.92
		c0.98-0.78,1.86-1.66,2.64-2.641c0.704-0.017,0.892-0.549,1.2-0.96c0.517,0.379-0.885,0.858-0.96,1.44
		C5.719,58.512,5.764,58.317,6.004,58.318z"/>
	<path fill-rule="evenodd" clip-rule="evenodd" fill="#393534" d="M75.125,49.918c0.527,0.622-1.246,0.983-1.682,1.44
		C73.635,50.509,74.846,50.679,75.125,49.918z"/>
	<path fill-rule="evenodd" clip-rule="evenodd" fill="#393534" d="M39.844,53.278c0.499,0.135,0.509,0.374,0.24,0.72
		c0.927-0.272,1.418-0.981,2.4-1.2c0,0.24,0,0.48,0,0.721c0.889-0.029,0.604-0.35,0.48-0.96c0.938,0.512,1.928,0.197,2.16,0.96
		c0.445-0.077,1.904-0.245,1.68-0.24c1.178-0.027,2.175-0.028,3.12,1.2c0.377-0.104,0.205-0.755,0.96-0.48
		c-0.616,1.044,0.864,0.923,1.92,0.96c-0.406,0.607,0.051,1.064,0.48,0.48c0.389-0.172,0.389,1.132,0,0.96
		c0.309,0.121,0.497,0.254,1.2,0.479c0.172,0.652-1.132-0.171-0.96,0.48c1.587,0.793,0.492-0.129,0.24,0.479
		c-0.23,0.556,0.718,0.491,0.72,0.48c-0.164,0.705-0.653,1.203-0.72,1.68c0.397,0.548-0.613-0.346,0-0.96
		c-1.011,0.784-0.541,2.709-2.4,1.92c-0.039,0.279,0.053,0.428,0.24,0.48c-6.953-0.766-16.306,1.359-21.36,0.96
		c-0.655,0.217,0.73,0.537,0,0.96c-0.151-0.133-0.725-0.976-0.96-0.24c-0.408-0.118,0.163-1.254,0.96-0.96
		c-1.027-0.287-0.514-0.866-0.48-1.92c0.561,0.079,0.992,0.288,1.44,0.48c-1.69-1.067,1.652-0.558,0.24-1.921
		c0.431-0.03,0.506,0.294,0.96,0.24c0-0.16,0-0.319,0-0.479c-0.024-0.463-0.894,0.372-1.2-0.24c0.542-0.434,1.688-0.089,0.96-1.2
		c0.489,0.07,0.47,0.649,0.96,0.72c-0.007,0.233-0.294,0.187-0.48,0.24c0.059,0.261,0.477,0.163,0.48,0.48
		c0.413-0.074-0.312-0.834,0.72-0.721c0.016-0.815-1.232-0.367-1.2-1.199c1.439,0.885,1.176-0.872,2.16,0.239
		c0.567-0.664-0.215-1.284,0.24-2.159c0.154,0.977,0.926,0.213,0.96,0.96c0.54-0.968,0.091-0.312,1.2-0.24
		C36.117,53.747,39.561,55.033,39.844,53.278z"/>
	<path fill-rule="evenodd" clip-rule="evenodd" fill="#FFFFFF" d="M15.604,76.078c1.806-0.046,3.1,0.42,5.04,0.24
		c1.603,0.399,4.876,0.399,6.48,0c3.183,0.224,5.336-0.584,8.4-0.48c0.186,0.054,0.473,0.007,0.48,0.24
		c-0.79,0.01-1.195,0.405-2.16,0.24c-3.816,0.455-11.131,0.824-15.6,0.479C17.135,76.712,12.963,75.968,15.604,76.078z"/>
	<path fill-rule="evenodd" clip-rule="evenodd" fill="#393534" d="M38.645,75.837c0.611-0.509,1.837-0.402,2.64-0.72
		C40.735,75.689,39.824,75.897,38.645,75.837z"/>
	<path fill-rule="evenodd" clip-rule="evenodd" fill="#FFFFFF" d="M52.324,72.238c0.08,0,0.16,0,0.24,0
		c0.596,0.312,0.996-0.704,1.2,0c-3.104,0.816-6.548,2.57-9.84,2.4C46.863,73.976,49.838,73.352,52.324,72.238z"/>
	<path fill-rule="evenodd" clip-rule="evenodd" fill="#393534" d="M57.125,70.797c0.615-0.312-1.068,0.715-1.681,0.721
		C55.686,70.959,56.27,70.744,57.125,70.797z"/>
	<path fill-rule="evenodd" clip-rule="evenodd" fill="#FFFFFF" d="M64.564,66.478c1.967-1.153,3.756-2.484,5.279-4.08
		c-1.668,3.132-6.035,5.644-10.08,7.2c-0.289-0.051-0.146-0.267,0-0.48C61.408,68.283,63.105,67.5,64.564,66.478z"/>
	<path fill-rule="evenodd" clip-rule="evenodd" fill="#912324" d="M32.404,85.917c-9.825,0.226-17.348-1.852-22.8-6
		c-1.604-1.678-4.152-3.687-4.56-5.76c2.479,1.085,5.311,2.159,7.92,2.64c21.553,3.977,44.413-3.854,56.161-12
		c-2.021,7.315-7.25,12.071-13.681,15.601c-5.999,2.642-12.638,4.642-20.64,5.28C34.075,85.829,32.737,85.371,32.404,85.917z"/>
	<g>
		<g>
			<path fill="none" d="M18.753,45.86c10-7,26-11,33.5-19c-8.5-1-18,5-26.5,7.5c3.5,0.5,11-1.5,13.5-4.5c3-4,2.5-2-1-5.5
				c-2.5-2-8-1.5-9-5.5c-0.5-3,4.5-7.5,6-10c-4-2-7-5-2.5-8.5"/>
			<g>
				<g>
					<path fill="#EDEDED" d="M24.316,46.178l-0.399,0.18C24.049,46.348,24.181,46.296,24.316,46.178z"/>
					<path fill="#EDEDED" d="M21.906,45.282c-1.035,0.481-0.444,1.324-1.767,1.375l0.451,0.627l-0.722,0.056
						c0.306,0.105,0.003,0.68,0.496,0.82c-0.81-0.582,2.136-0.875,0.636-1.381c1.108,0.372,1.908,0.033,2.917-0.422
						c-0.39,0.03-0.788-0.304-1.241-0.467l0.09,0.858C21.652,47.155,21.261,46.063,21.906,45.282z"/>
					<polygon fill="#EDEDED" points="36.123,29.967 35.921,29.841 35.535,29.975 					"/>
					<polygon fill="#EDEDED" points="33.183,29.621 33.969,29.359 33.211,29.331 					"/>
					<polygon fill="#EDEDED" points="30.513,30.765 30.662,30.779 30.783,30.681 					"/>
					<path fill="#EDEDED" d="M30.063,30.844l-0.029-0.672l-0.383-0.227c0.002,0.187-0.088,0.434,0.109,0.546l-0.616,0.194l0.3,0.313
						L30.063,30.844z"/>
					<polygon fill="#EDEDED" points="33.138,29.097 32.999,29.103 33.079,29.147 					"/>
					<path fill="#EDEDED" d="M32.061,30.272l0.253,0.008c0.054,0.279,0.167,0.447,0.32,0.539l1.01-0.038l0.352-0.133
						c-0.449-0.288-1.068-0.445-1.716-0.646l-0.185-0.019l0.062-0.021l-0.241-0.077l0.754-0.772l-1.12,0.04l0.05,0.928l-0.33,0.093
						l0.953,0.043L32.061,30.272z"/>
					<path fill="#EDEDED" d="M29.628,31.188l0.285,0.296l0.486-0.462C30.092,31.019,29.84,31.081,29.628,31.188z"/>
					<polygon fill="#EDEDED" points="35.523,29.979 35.535,29.975 35.518,29.975 					"/>
					<path fill="#EDEDED" d="M34.351,30.19l0.308,0.166l0.534-0.242C35.009,30.08,34.788,30.071,34.351,30.19z"/>
					<path fill="#EDEDED" d="M29.349,29.715l0.303,0.229C29.65,29.81,29.6,29.707,29.349,29.715z"/>
					<path fill="#EDEDED" d="M34.393,29.053c0.274,0.112,0.441,0.237,0.571,0.364c0.355,0.116,0.69,0.248,0.958,0.425
						c0.391-0.121,0.763-0.183,1.08-0.12l-0.403-0.22l-0.061,0.039l0.04-0.051l-0.276-0.15l0.404-0.079
						c0.032-0.231-0.385-0.253-0.714-0.353c-0.33,0.061-0.662,0.101-1.018,0.086l0.05-0.305l-0.573,0.274L34.393,29.053z"/>
					<path fill="#EDEDED" d="M34.33,29.021l0.121-0.06c0.085-0.078,0.261-0.174,0.575-0.288c0.063-0.301,0.091-0.469-0.467-0.624
						L33.633,29l1.011,0.313c-0.153-0.082-0.276-0.161-0.251-0.261L34.33,29.021z"/>
					<path fill="#EDEDED" d="M37.1,28.683l-0.451,0.091c-0.103,0.296-0.103,0.515,0.727,0.222l-0.378,0.247
						c0.362,0.011,0.51,0.148,0.972,0.114l-0.049-0.097c-0.627-0.163-0.635-0.562-1.135-0.925l-0.024,0.121L37.1,28.683z"/>
					<path fill="#EDEDED" d="M36.431,28.002l0.772-0.362C36.77,27.788,36.539,27.905,36.431,28.002z"/>
					<polygon fill="#EDEDED" points="36.431,28.002 36.295,28.065 36.356,28.094 36.372,28.091 					"/>
					<path fill="#EDEDED" d="M39.636,28.085c-0.358,0.109-0.571,0.137-0.698,0.117l-0.022,0.309L39.636,28.085z"/>
					<polygon fill="#EDEDED" points="38.618,27.065 38.25,27.107 38.546,27.53 					"/>
					<path fill="#EDEDED" d="M37.806,27.784c0.111,0.125,0.331,0.18,0.543,0.226l0.112-0.248
						C38.235,27.816,37.978,27.88,37.806,27.784z"/>
					<path fill="#EDEDED" d="M31.543,31.613c0.383,0.245,0.895,0.352-0.109,0.532l-0.059,0.141l0.202,0.217
						c0.224-0.104,0.521-0.27,0.557,0.025c0.046-0.516,0.319-0.909,1.152-0.648c-0.468-0.69-1.106-0.324-1.476-0.327L31.543,31.613z
						"/>
					<polygon fill="#EDEDED" points="31.473,30.842 31.54,30.841 31.547,30.769 					"/>
					<path fill="#EDEDED" d="M31.56,32.511l-0.232-0.06C31.304,32.607,31.413,32.578,31.56,32.511z"/>
					<path fill="#EDEDED" stroke="#CCCCCC" stroke-width="0" stroke-linecap="round" stroke-linejoin="round" d="M29.056,32.825
						l0.298,0.17C29.47,32.739,29.68,32.483,29.056,32.825z"/>
					<path fill="#EDEDED" stroke="#CCCCCC" stroke-width="0" stroke-linecap="round" stroke-linejoin="round" d="M29.859,33.277
						l-0.505-0.282C29.256,33.212,29.228,33.431,29.859,33.277z"/>
					<path fill="#EDEDED" d="M29.869,32.157l-0.153,0.125l0.689,0.233C30.335,32.425,30.044,32.318,29.869,32.157z"/>
					<path fill="#EDEDED" d="M30.384,32.188l-0.142-0.339L30,32.049C30.058,32.213,30.2,32.216,30.384,32.188z"/>
					<path fill="#EDEDED" stroke="#CCCCCC" stroke-width="0" stroke-linecap="round" stroke-linejoin="round" d="M35.231,27.5
						c-0.365-0.015-0.594-0.487-1.465-0.23C34.744,27.25,34.204,27.863,35.231,27.5z"/>
					<polygon fill="#EDEDED" points="31.213,28.793 31.199,28.965 32.568,28.613 					"/>
					<path fill="#EDEDED" d="M29.629,36.95c0.04-0.156-0.03-0.274-0.147-0.378C29.399,36.702,29.417,36.84,29.629,36.95z"/>
					<path fill="#EDEDED" d="M27.743,35.035c-0.247-0.084-0.354-0.06-0.417,0.012l0.196,0.117L27.743,35.035z"/>
					<path fill="#EDEDED" d="M31.227,35.555c-0.077-0.107-0.082-0.217,0.066-0.386l-0.03-0.031
						c-0.357,0.137-0.891,0.055-1.105-0.089l0.594,0.641l-0.633,0.269l-0.019,0.075L31.227,35.555z"/>
					<path fill="#EDEDED" d="M29.156,36.348c0.498-0.935-2.753-0.38-1.804-1.07l-0.107-0.072c-0.053,0.141-0.103,0.314-0.356,0.375
						l-1.044-0.762c-0.173,0.876,2.947,1.207,3.639,1.752c0.128-0.197,0.484-0.372,0.811-0.416l-0.316-0.138L29.156,36.348z"/>
					<path fill="#EDEDED" d="M30.48,36.143c0.217,0.008,0.397,0.093,0.448,0.3c0.539-0.15,0.725-0.299,0.757-0.41
						C31.514,35.671,30.768,35.861,30.48,36.143z"/>
					<path fill="#EDEDED" d="M30.157,35.05l-0.104-0.116L30.157,35.05z"/>
					<path fill="#EDEDED" d="M29.563,34.507c0.091-0.162,0.108-0.259,0.033-0.166l-0.389,0.142
						C29.316,34.531,29.436,34.532,29.563,34.507z"/>
					<path fill="#EDEDED" d="M28.77,34.914l-0.25,0.151l0.106,0.147c0.305,0,0.57-0.205,0.748-0.435l-0.218-0.272
						c-0.391,0.15-0.77,0.253-1.042-0.02l0.293,0.423C28.465,34.858,28.562,34.845,28.77,34.914z"/>
					<path fill="#EDEDED" d="M27.701,30.063c0.179-0.049,0.32-0.085,0.314-0.031L27.701,30.063l-0.851,0.362
						c0.292,0.137,0.583,0.284,1.014,0.48c-0.167-0.01-0.285,0.031-0.379,0.1c0.14,0.073,0.246,0.171,0.285,0.319l-0.241,0.031
						l0.32,0.008l0.194-0.05l0.243-0.204c-0.043-0.116,0-0.27,0.001-0.393l-0.274-0.212c0.229-0.009,0.274,0.086,0.274,0.212
						l0.159,0.109c0.149-0.322,0.27-0.66,0.744-0.658c-1.029-0.423-1.386-0.584-2.486-0.976c0.096,0.525-0.246,0.688-0.584,0.924
						l0.643,0.27C26.645,29.928,27.253,30.042,27.701,30.063z"/>
					<path fill="#EDEDED" stroke="#FFFFFF" stroke-width="0" stroke-linecap="round" stroke-linejoin="round" d="M27.701,30.063
						c-0.448-0.021-1.057-0.135-0.938,0.322l0.074,0.033C26.993,30.31,27.401,30.144,27.701,30.063z"/>
					<path fill="#EDEDED" stroke="#FFFFFF" stroke-width="0" stroke-linecap="round" stroke-linejoin="round" d="M26.838,30.417
						l0.013,0.007l0.851-0.362C27.401,30.144,26.993,30.31,26.838,30.417z"/>
					<path fill="#EDEDED" stroke="#FFFFFF" stroke-width="0" stroke-linecap="round" stroke-linejoin="round" d="M28.016,30.032
						c0.005-0.055-0.136-0.019-0.314,0.031L28.016,30.032z"/>
					<path fill="#EDEDED" stroke="#CCCCCC" stroke-width="0" stroke-linecap="round" stroke-linejoin="round" d="M30.704,36.696
						c1.538,0.065-0.573,0.855,1.093,0.562C31.946,36.741,31.439,36.621,30.704,36.696z"/>
					<polygon fill="#EDEDED" points="40.755,23.565 40.614,23.509 40.552,24.659 40.705,24.71 					"/>
					<path fill="#EDEDED" d="M35.68,34.011l-0.374-0.183c-0.509-0.232-0.107-1.373-1.102-0.325
						C34.9,33.703,34.638,34.413,35.68,34.011z"/>
					<path fill="#EDEDED" stroke="#CCCCCC" stroke-width="0" stroke-linecap="round" stroke-linejoin="round" d="M36.761,32.755
						c-0.461,0.326,0.02,0.683,0.604,0.747l0.265-0.189C37.276,33.235,37.311,32.73,36.761,32.755z"/>
					<polygon fill="#EDEDED" points="40.282,25.807 40.577,25.991 40.493,25.876 					"/>
					<path fill="#EDEDED" d="M38.77,22.688c-0.151-0.286,0.04-0.5-0.751-0.962c0.26,0.293,0.467,0.641,0.626,0.953L38.77,22.688z"/>
					<path fill="#EDEDED" d="M38,21.717c-0.182-0.083-0.404-0.171-0.716-0.269c-0.178,0.016-0.273,0.047-0.321,0.086
						C37.434,21.728,37.881,22.157,38,21.717z"/>
					<polygon fill="#EDEDED" points="37.401,22.705 37.603,22.669 37.553,22.638 					"/>
					<path fill="#EDEDED" d="M39.426,23.33c-0.317-0.385-0.37-0.414-0.55-0.635l-0.106-0.007
						C38.878,22.87,38.916,22.882,39.426,23.33z"/>
					<path fill="#EDEDED" d="M42.588,30.545c0.228-0.584,0.187-0.76,0.023-0.764l-0.399,0.558
						C42.36,30.316,42.5,30.352,42.588,30.545z"/>
					<path fill="#EDEDED" d="M42.284,29.873c-0.212,0.095-0.437,0.201-0.613,0.208C41.82,30.12,42.021,30.042,42.284,29.873z"/>
					<path fill="#EDEDED" d="M39.927,31.372c0.038,0.162,0.187,0.185,0.38,0.14c0.141-0.437,0.263-0.996,0.644-1.349
						C40.618,30.365,40.083,30.726,39.927,31.372z"/>
					<path fill="#EDEDED" d="M43.323,29.178c-0.116,0.07-0.289,0.245-0.359,0.274C43.041,29.47,43.206,29.301,43.323,29.178z"/>
					<path fill="#EDEDED" d="M42.134,26.93c-0.381-1.439-0.98-1.529-1.16-2.07c-0.21-0.181-0.294-0.312-0.315-0.42l-0.636-0.033
						l0.249,0.355c-0.32,0.561-1.255,0.144-1.196-0.639c-1.091-0.357,0.712,1.264-0.359,0.646c1.38,1.958,0.275-0.765,2.538,0.999
						c0.208,0.436-0.017,0.467-0.302,0.377C41.267,26.375,41.819,26.975,42.134,26.93z"/>
					<polygon fill="#EDEDED" points="41.471,29.206 41.445,29.521 41.679,29.16 					"/>
					<path fill="#EDEDED" d="M42.103,23.186l0.137,0.042l-0.081-0.771c-0.604,0.298-0.421,0.82-0.021,1.445l0.025-0.025
						C41.996,23.65,42.016,23.474,42.103,23.186z"/>
					<path fill="#EDEDED" d="M39.738,23.608l0,0.005l-0.312-0.283l0.493,0.915C40.024,24.089,39.846,23.819,39.738,23.608z"/>
					<path fill="#EDEDED" d="M43.449,28.243l-0.788,0.597c-0.186,0.244-0.276,0.277-0.368,0.4c0.237,0.169,0.434,0.224,0.611,0.213
						c0.241-0.18,0.624-0.651,0.874-0.93c1.282-2.232-1.552-4.785-1.339-4.355l0.079,0.206l-0.044-0.025
						c0.204,0.343,1.241,1.322,1.061,2.424C43.641,27.361,43.498,28.062,43.449,28.243z"/>
					<path fill="#EDEDED" d="M38.737,30.814l0.049-0.155c-0.186,0.101-0.369,0.255-0.505,0.45l-0.001,0.134
						C38.471,31.016,38.612,30.871,38.737,30.814z"/>
					<path fill="#EDEDED" d="M39.679,30.039l-0.189-0.684c-0.342,0.396-0.33,0.508-0.236,0.585l0.062-0.075
						C39.438,30.109,39.578,30.104,39.679,30.039z"/>
					<path fill="#EDEDED" d="M40.659,24.439l0.074,0.001l0.241,0.419c0.085,0.075,0.166,0.143,0.337,0.259
						c-0.104-0.434,0.077-0.519,0.383-0.452c-0.143-0.398-0.127-0.691-0.187-1.031c-0.527-0.02-1.467-0.833-1.721-0.339l0.207,0.009
						C40.907,24.009,40.601,24.142,40.659,24.439z"/>
					<path fill="#EDEDED" d="M40.527,29.382l-0.066-0.195c-0.19-0.399-0.05-0.513,0.163-0.672l-0.121-0.149
						c-0.402,0.522-0.443,0.897-0.463,1.253C40.167,29.474,40.319,29.36,40.527,29.382z"/>
					<path fill="#EDEDED" d="M41.473,30.039l-0.096-0.105l0.009-0.113l-0.012-0.018l-0.128,0.147
						c-0.021,0.202-0.017,0.343,0.004,0.445C41.378,30.289,41.479,30.18,41.473,30.039z"/>
					<path fill="#EDEDED" d="M41.204,28.627c0.256-0.306,0.443-0.688,0.521-0.94c-0.457,0.266-0.645,0.839-0.896,0.906
						C40.854,28.696,40.952,28.74,41.204,28.627z"/>
					<path fill="#EDEDED" d="M41.465,26.863c0.058,0.112,0.167,0.239,0.303,0.463C41.718,26.906,41.558,26.853,41.465,26.863z"/>
					<polygon fill="#EDEDED" points="38.138,31.313 38.07,31.452 38.147,31.375 					"/>
					<path fill="#EDEDED" d="M39.793,31.373l-0.338,0.203c0.073,0.251,0.133,0.471,0.249,0.48
						C39.625,31.985,39.642,31.785,39.793,31.373z"/>
					<path fill="#EDEDED" d="M39.742,32.08c-0.154,0.155-0.499,0.363-0.732,0.6c0.654-0.021,0.962-0.396,1.125-0.682
						C39.971,32.065,39.828,32.11,39.742,32.08z"/>
					<path fill="#EDEDED" d="M36.503,34.51c0.091-0.131,0.239-0.232,0.418-0.305c-0.358-0.038-0.638-0.081-1.016,0.164l-0.154,0.354
						l0.272-0.01L36.503,34.51z"/>
					<path fill="#EDEDED" d="M35.554,35.139c0.038-0.108,0.139-0.196,0.276-0.302l-0.131,0.007L35.554,35.139z"/>
					<polygon fill="#EDEDED" points="38.197,34.673 38.154,34.452 38.083,34.482 					"/>
					<path fill="#EDEDED" d="M37.922,34.401l0.204-0.083l-0.05-0.236c-0.213,0.096-0.393,0.122-0.56,0.132l-0.047,0.126
						L37.922,34.401z"/>
					<path fill="#EDEDED" d="M39.431,33.22l0.336-0.058C39.616,33.138,39.515,33.17,39.431,33.22z"/>
					<path fill="#EDEDED" d="M39.431,33.22c-0.627,0.122-1.229,0.418-1.355,0.863c0.159,0.069,0.355,0.068,0.567,0.031l0.49-0.136
						c1-0.241,2.203-1.549,2.413-0.707c0.344-1.47-1.346,0.317-2.333,0.504C39.208,33.535,39.27,33.322,39.431,33.22z"/>
					<polygon fill="#EDEDED" points="40.564,29.384 40.46,29.187 40.527,29.382 					"/>
					<path fill="#EDEDED" d="M36.849,22.659c-0.729-0.959-0.983-1.507-1.621-2.146c-0.089,0.617-0.692-0.104-1.177-0.088
						C34.411,21.899,35.296,21.448,36.849,22.659z"/>
					<path fill="#EDEDED" d="M32.622,21.155c-0.02,0.062-0.014,0.167,0.036,0.34l-0.57-0.414c0.146,0.367,0.378,0.676,0.592,1.029
						c-0.871-1.273,1.316,0.068,1.07-0.705c-0.351,0.21-1-0.505-1.12-0.271l0.299,0.314L32.622,21.155z"/>
					<path fill="#EDEDED" stroke="#CCCCCC" stroke-width="0" stroke-linecap="round" stroke-linejoin="round" d="M41.006,22.817
						c-0.262-1.319,0.305,0.372-1.111-0.815C40.46,22.982,40.612,22.48,41.006,22.817z"/>
					<path fill="#EDEDED" d="M30.636,19.372c-0.034,0.206,0.019,0.374,0.088,0.543C30.689,19.695,30.647,19.535,30.636,19.372z"/>
					<polygon fill="#EDEDED" points="30.636,19.372 30.682,18.708 30.514,18.814 30.448,19.073 					"/>
					<path fill="#EDEDED" stroke="#CCCCCC" stroke-width="0" stroke-linecap="round" stroke-linejoin="round" d="M33.038,18.289
						c-0.453,0.018-0.933-0.375-0.951,0.167C32.38,18.383,33.379,17.492,33.038,18.289z"/>
					<path fill="#EDEDED" d="M31.021,43.555c0.199-0.377-0.311-0.476-0.859-0.615l-0.126-0.017l0.033-0.006
						c-0.381-0.101-0.762-0.232-0.912-0.499l-0.188,0.066C29.68,43.239,29.537,42.855,31.021,43.555z"/>
					<path fill="#EDEDED" stroke="#CCCCCC" stroke-width="0" stroke-linecap="round" stroke-linejoin="round" d="M25.245,45.735
						l-0.471,0.136C24.897,45.921,25.131,45.854,25.245,45.735z"/>
					<polygon fill="#EDEDED" stroke="#CCCCCC" stroke-width="0" stroke-linecap="round" stroke-linejoin="round" points="
						36.157,41.262 36.477,41.355 36.477,41.355 					"/>
					<polygon fill="#EDEDED" points="38.896,39.891 38.849,39.896 39.007,40.295 					"/>
					<path fill="#EDEDED" d="M27.128,0.715c0.229,0.033,0.433,0.132,0.603,0.333c-0.936,2.507,0.354,5.8,1.937,6.952
						c0.111-2.289,2.354-4.073,4.278-4.255c-0.093,0.051-0.07,0.241-0.529,0.121c0.226,0.09,0.545,0.157,0.8,0.261
						c0.295,0.167,0.746-0.162,1.134-0.426c-0.944-2.721-6.485-4.815-8.167-3.047L27.128,0.715z"/>
					<path fill="#EDEDED" d="M36.283,12.804l-0.064-0.15c-0.71,0.75-1.468,1.93-2.147,3.031c0.629-0.206,1.145-0.504,1.459-1.133
						c0.63-0.794,1.288-1.755,2.021-2.948l0.544-0.929l0.033-0.057l0.008-0.014l0.004-0.007l0.001-0.002
						c-2.763-9.488-0.767-2.63-1.384-4.749l-0.002-0.001l-0.019-0.008l-0.076-0.033l-0.149-0.066l-0.289-0.133
						c-0.373-0.178-0.736-0.349-0.927-0.552l0.13-0.097C35.062,4.88,34.67,4.743,34.47,4.572L34.184,5.11
						c0.95-0.01,1.41,0.378,2.063,0.815l0.228,0.17l0.116,0.086l0.001,0c-0.267-0.917,2.327,7.99,1.229,4.22l-0.002,0.002
						l-0.004,0.005l-0.009,0.011l-0.017,0.021l-0.034,0.042l-0.067,0.085l-0.533,0.71C36.792,11.822,36.525,12.187,36.283,12.804z"
						/>
					<path fill="#EDEDED" d="M47.224,36.302l-0.075,0.06c0.405-0.122,0.752-0.172,0.481,0.306c0.496-0.532,0.208-0.468,0.356-1.014
						l-0.256,0.232L47.224,36.302z"/>
					<polygon fill="#EDEDED" points="47.985,35.653 47.989,35.643 47.729,35.885 					"/>
					<polygon fill="#EDEDED" points="47.144,36.363 47.146,36.362 47.224,36.302 					"/>
					<path fill="#EDEDED" d="M41.85,26.285l0.062,0.075l0.459-0.399c0.325,0.209,0.504,0.461,0.49,0.766
						c0.279,0.06,0.548,0.123,0.716,0.236l0,0l0.614,0.072c-0.32-0.504-0.698-0.867-1.788-1.097l0.029-0.047
						c-0.534,0.025-1.067,0.113-1.346,0.032c0.031,0.328-0.097,0.667-0.262,0.991c0.109,0.051,0.178,0.134,0.19,0.267L41.85,26.285z
						"/>
					<path fill="#EDEDED" d="M40.221,28.353c0.028,0.176,0.162,0.321,0.457,0.421C40.666,28.506,40.617,28.296,40.221,28.353z"/>
					<path fill="#EDEDED" d="M40.962,28.721c0.228-0.382,0.317-0.66,0.356-0.888l-0.4-0.019L40.962,28.721z"/>
					<path fill="#EDEDED" d="M42.542,27.416l-0.097,0.123c1.456-0.345,0.32,0.979,1.12,1.347l0.005-1.455
						C43.26,27.505,42.914,27.462,42.542,27.416z"/>
					<path fill="#EDEDED" d="M47.1,36.316l-0.41-0.574c-1.223,0.246-2.041,0.997-3.61,1.227l0.096,0.221l-0.003-0.034
						c0.671,0.662,1.499,0.344,2.487,0.304l1.483-1.097c-0.329,0.1-0.694,0.245-0.81,0.205L47.1,36.316z"/>
					<path fill="#EDEDED" d="M47.185,34.633l0.089,0.52l0.929-0.088c-0.117,0.256-0.177,0.434-0.215,0.578l0.795-0.816
						C48.185,34.952,47.661,35.034,47.185,34.633z"/>
					<path fill="#EDEDED" d="M36.776,40.163c0.131-0.583-0.302-1.108-1.324-0.625l0.662,0.313c-1.121,0.343-0.666-0.646-1.566-0.259
						l0.008,0.006l-0.077,0.028l-0.265,0.133c0.175,0.648,1.659,0.557,1.791,0.951c0.728,0.025,1.341-0.04,1.491,0.658
						c-0.472,0.309-0.718,0.122-1.019-0.011l0,0l0,0l0,0l0.275,0.364c1.629-0.323,0.717-1.411,1.662-1.737
						C38.053,39.956,37.729,39.58,36.776,40.163z"/>
					<path fill="#EDEDED" d="M40.433,28.773l0.196-0.194C40.534,28.63,40.446,28.674,40.433,28.773z"/>
					<path fill="#EDEDED" d="M40.774,27.836c0.107,0.256,0.117,0.416,0.079,0.523l0.386-0.345L40.774,27.836z"/>
					<path fill="#EDEDED" d="M26.07,44.205c0.768,0.005,1.481,0.146,2.302-0.503l-0.01-0.135c-0.646,0.187-1.246,0.241-1.948-0.062
						C27.188,43.842,26.576,44.005,26.07,44.205z"/>
					<polygon fill="#EDEDED" points="38.849,39.896 38.826,39.833 38.704,39.916 					"/>
					<path fill="#EDEDED" d="M29.136,40.79l-0.279,0.648c-0.193-0.08-0.482-0.066-0.957,0.146c-0.473,0.988-0.144,1.102,0.138,1.338
						l0.007,0.667c-0.673,0.195-1.021-0.144-1.024-0.592l0.399-0.067c-0.119-0.18-0.236-0.234-0.354-0.223
						c0.054-0.181,0.157-0.365,0.314-0.527c-0.532,0.2-0.647,0.534-0.827,0.79c-0.187,0.104-0.376,0.143-0.569-0.144l-0.11,0.468
						l-0.092,0.036l-0.142,0.003l0.025,0.043c-0.527,0.145-0.633-0.435-0.523-0.389c-0.728,0.042-0.822,0.851-0.71,0.557
						c0.845-1.034,0.576,0.243,1.298-0.05l0.072,0.126L25.57,43.95l-0.248,0c0.11,0.053,0.116,0.167,0.12,0.297
						c-0.344,0.058-0.702,0.183-1.085,0.447l1.825,0.771l-0.937,0.27c-1.046,0.235-0.917-0.904-1.893-0.097
						c-0.292-1.814,0.829-2.519,1.153-3.94c1.342-0.644,1.445-0.819,3.289-1.377c-0.846-1.073,1.532-3.149,2.692-4.566l1.093-0.005
						c1.553-2.083,3.553-4.816,6.318-6.726c0.814-0.13,1.071-1.006,1.915-0.293l-0.105,0.118l0.523,0.126
						c-1.441,1.601-2.757,3.321-3.738,4.773l-0.986,0.017c-1.021,1.283-3.212,3.145-2.459,4.149c-1.692,0.482-1.805,0.597-3.05,1.15
						l-0.086,0.261c-0.12-0.272-0.197-0.508-0.87-0.18c0.628-0.16,0.646,0.19,0.735,0.49l-0.427,0.78
						c-0.45,0.155-0.946,0.093-0.939-0.334l-0.012,0.864L29.136,40.79z M26.576,42.217l-0.624,0.125
						c-0.414-0.057-0.62-0.406-1.314-0.075c0.339,0.257,0.839,0.178,1.314,0.075C26.113,42.364,26.305,42.347,26.576,42.217z"/>
					<path fill="#EDEDED" d="M42.323,38.379l0.971-0.114L43.2,37.399C42.378,37.546,42.445,37.958,42.323,38.379z"/>
					<polygon fill="#EDEDED" points="25.643,43.949 25.987,43.949 25.877,43.758 					"/>
					<path fill="#EDEDED" d="M50.435,26.488l-0.049-0.146c-0.421,0.283-0.853,0.518-1.292,0.735
						C49.431,27.215,49.837,27.144,50.435,26.488z"/>
					<path fill="#EDEDED" d="M39.766,38.126c-0.007,0.32-0.248,0.861,0.327,0.63c-1.962,1.233-0.878-1.199-2.482-0.14l0.554,0.251
						l-0.571,0.229c0.374-0.098,0.813,0.162,1.272,0.306c0.86-0.106,1.523-0.364,2.147-0.608l-0.236-0.063l0.236,0.063l0.868-0.306
						C41.505,38.041,40.628,38.371,39.766,38.126z"/>
					<path fill="#EDEDED" d="M52.447,31.662c-0.25,0.385-0.548,0.77-0.864,1.152l-0.002,0.011c-0.095,0.521,0.168,0.405-0.26,0.933
						c0.218-0.466-0.105-0.387-0.478-0.232l-0.004,0.003l-0.681,0.601c1.145-0.111,1.911,0.958,2.937,0.412
						c1.145-0.711,2-1.43,2.655-2.132c0.328-0.352,0.605-0.701,0.85-1.047l0.178-0.259v-0.002
						c-7.594-20.786-2.105-5.762-3.801-10.401h-0.001l-0.005,0.001l-0.011,0.002l-0.021,0.004l-0.042,0.007l-0.084,0.016
						l-0.167,0.033l-0.651,0.149l0.618,0.08l0.32,0.051l0.005,0l0.001,0c7.17,19.625,1.987,5.44,3.588,9.82v0l-0.002,0l-0.002,0.001
						l-0.008,0.006l-0.016,0.011l-0.031,0.022L56.4,30.951l-0.133,0.089C55.07,31.83,54.04,30.22,52.447,31.662z"/>
					<path fill="#EDEDED" d="M29.718,41.82l1.314,0.613l0.125-0.031l-0.718-0.337c1.095-0.534,1.564,0.04,1.432,0.676
						c1.579-0.997,1.532,0.563,2.55-0.713c-0.604-0.111-1.204-0.572-1.687-0.45l0.612-0.236l-0.206-0.098
						C31.967,41.812,31.05,40.982,29.718,41.82z"/>
					<path fill="#EDEDED" d="M35.317,40.629l-0.237-0.052c-0.012,0.345-0.275,0.926,0.344,0.689
						c-1.698,1.033-1.274-0.44-1.942-0.489c-0.112-0.631-0.733-0.492-0.571-1.169l0.248,0.057l-0.234-0.111l0.195-0.477
						c1.237-0.534,1.109,0.348,1.429,0.514l-0.068,0.034l-0.491,0.188C34.603,40.498,34.58,40.347,35.317,40.629z M34.08,40.406
						l-0.688-0.453C33.019,40.662,33.682,40.411,34.08,40.406l0.27,0.176C34.351,40.437,34.236,40.404,34.08,40.406z"/>
					<path fill="#EDEDED" d="M24.638,42.267c0.339,0.257,0.839,0.178,1.314,0.075C25.539,42.285,25.332,41.936,24.638,42.267z"/>
					<path fill="#EDEDED" d="M26.576,42.217l-0.624,0.125C26.113,42.364,26.305,42.347,26.576,42.217z"/>
					<path fill="#EDEDED" d="M26.553,42.972c-0.187,0.104-0.376,0.143-0.569-0.144l-0.11,0.468l-0.092,0.036
						C26.231,43.32,26.414,43.17,26.553,42.972z"/>
					<path fill="#EDEDED" d="M27.419,42.932c-0.119-0.18-0.236-0.234-0.354-0.223l-0.045,0.29L27.419,42.932z"/>
					<path fill="#EDEDED" d="M25.142,42.988c-0.728,0.042-0.822,0.851-0.71,0.557c0.845-1.034,0.576,0.243,1.298-0.05l-0.064-0.117
						C25.138,43.521,25.032,42.942,25.142,42.988z"/>
					<polygon fill="#EDEDED" points="25.877,43.758 25.802,43.621 25.57,43.95 25.643,43.949 					"/>
					<path fill="#EDEDED" d="M29.039,39.143c0.628-0.16,0.646,0.19,0.735,0.49l0.134-0.31
						C29.789,39.051,29.712,38.815,29.039,39.143z"/>
					<path fill="#EDEDED" d="M28.408,40.079l-0.012,0.864l0.74-0.153l0.212-0.377C28.898,40.568,28.401,40.506,28.408,40.079z"/>
					<polygon fill="#EDEDED" points="32.924,39.554 32.911,39.608 33.159,39.665 					"/>
					<path fill="#EDEDED" d="M34.08,40.406l0.27,0.176C34.351,40.437,34.236,40.404,34.08,40.406z"/>
					<path fill="#EDEDED" d="M34.08,40.406l-0.688-0.453C33.019,40.662,33.682,40.411,34.08,40.406z"/>
					<polygon fill="#EDEDED" points="36.477,41.355 36.477,41.355 36.477,41.355 					"/>
					<path fill="#EDEDED" d="M47.224,36.302l0.506-0.417L47.224,36.302z"/>
					<path fill="#EDEDED" d="M47.274,35.153l0.083,0.501l-0.667,0.089l0.41,0.574l-0.766,0.251c0.116,0.04,0.481-0.105,0.81-0.205
						l0.08-0.062l0.506-0.417l0.259-0.243c0.038-0.144,0.098-0.322,0.215-0.578L47.274,35.153z"/>
					<path fill="#CCCCCC" d="M29.591,43.193l-0.407,0.129C29.313,43.325,29.448,43.288,29.591,43.193z"/>
					<path fill="#CCCCCC" d="M25.686,44.755c-0.283-0.249,0.024-0.408,0.385-0.55l-0.628,0.042
						C25.443,44.433,25.434,44.647,25.686,44.755z"/>
					<path fill="#CCCCCC" d="M29.184,43.322c-0.381-0.003-0.732-0.339-1.146-0.53l-0.001,0.131c0.151,0.126,0.294,0.296,0.324,0.644
						L29.184,43.322z"/>
					<path fill="#CCCCCC" d="M27.021,42.999c-0.641,0.16-0.908,0.511-1.143,0.76l0.109,0.191h-0.344l-0.108,0.055l0.036-0.054
						l-0.248,0c0.11,0.053,0.116,0.167,0.12,0.297l0.628-0.042c0.506-0.2,1.118-0.363,0.343-0.7
						c0.702,0.303,1.302,0.248,1.948,0.062c-0.03-0.348-0.173-0.518-0.324-0.644l0.007,0.667
						C27.372,43.786,27.023,43.446,27.021,42.999z"/>
					<polygon fill="#CCCCCC" points="25.64,43.334 25.665,43.377 25.782,43.331 					"/>
					<path fill="#CCCCCC" d="M27.066,42.709c0.054-0.181,0.157-0.365,0.314-0.527c-0.532,0.2-0.647,0.534-0.827,0.79
						C26.724,42.875,26.895,42.724,27.066,42.709z"/>
					<polygon fill="#CCCCCC" points="25.729,43.494 25.802,43.621 25.996,43.348 					"/>
					<polygon fill="#CCCCCC" points="25.643,43.949 25.57,43.95 25.534,44.004 					"/>
					<path fill="#CCCCCC" d="M27.021,42.999l0.045-0.29c-0.171,0.015-0.342,0.166-0.513,0.263c-0.139,0.198-0.322,0.348-0.771,0.359
						l-0.117,0.046l0.064,0.117l0.266-0.146l-0.194,0.272l0.076,0.138C26.113,43.51,26.38,43.158,27.021,42.999z"/>
					<polygon fill="#CCCCCC" points="34.194,30.77 34.01,30.654 33.657,30.78 					"/>
					<path fill="#CCCCCC" d="M31.473,30.842l-0.811-0.062l-0.263,0.242l0.313,0.02c0.094,0.514,0.404,0.638,0.832,0.572
						C31.279,31.443,31.09,31.207,31.473,30.842z"/>
					<path fill="#CCCCCC" d="M31.271,30.174l-0.045-0.001l0.235-0.196l-1.436,0.018l0.009,0.177
						C30.349,30.305,30.705,30.319,31.271,30.174z"/>
					<path fill="#CCCCCC" d="M32.634,30.819l-1.095,0.022c-0.076,0.577,0.045,0.712,0.271,0.713
						c0.541-0.154,1.206-0.523,1.846-0.774l-0.013,0.001C33.231,30.919,32.879,30.967,32.634,30.819z"/>
					<path fill="#CCCCCC" d="M30.783,30.681l1.278-0.409C31.489,30.262,31.104,30.428,30.783,30.681z"/>
					<path fill="#CCCCCC" d="M28.379,31.218l-0.336,0.094l-0.194,0.05l-0.033,0.009l0.69,0.759c0.372-0.303,0.669-0.716,1.121-0.943
						l-0.184-0.19c-0.441,0.069-0.719,0-0.998-0.173l-0.16,0.284L28.379,31.218z"/>
					<path fill="#CCCCCC" d="M30.398,31.021l0.263-0.242l-0.149-0.014l0.27-0.084c0.321-0.252,0.707-0.418,1.278-0.409l0.164-0.054
						l-0.953-0.043c-0.566,0.145-0.922,0.13-1.236-0.003l0.029,0.672l-0.619,0.153l0.184,0.19
						C29.84,31.081,30.092,31.019,30.398,31.021z"/>
					<path fill="#CCCCCC" d="M33.644,30.781l-1.01,0.038C32.879,30.967,33.231,30.919,33.644,30.781z"/>
					<path fill="#CCCCCC" d="M31.54,30.841l-0.067,0.001c-0.382,0.365-0.194,0.602,0.07,0.771l0.268-0.059
						C31.584,31.553,31.463,31.417,31.54,30.841z"/>
					<path fill="#CCCCCC" d="M28.043,31.312l-0.194,0.05L28.043,31.312z"/>
					<path fill="#CCCCCC" d="M28.286,31.108l0.16-0.284l-0.159-0.109C28.287,30.838,28.243,30.992,28.286,31.108z"/>
					<path fill="#CCCCCC" d="M28.013,30.503l0.274,0.212C28.287,30.589,28.242,30.494,28.013,30.503z"/>
					<path fill="#CCCCCC" d="M34.01,30.654c0.354-0.115,0.693-0.177,0.985-0.121l-0.335-0.177l-0.663,0.292L34.01,30.654z"/>
					<polygon fill="#CCCCCC" points="32.764,29.016 32.67,29.113 32.999,29.103 					"/>
					<path fill="#CCCCCC" d="M33.211,29.331c-0.01-0.07-0.05-0.129-0.133-0.184l-0.202,0.171L33.211,29.331z"/>
					<path fill="#CCCCCC" d="M32.28,30.002c1.069,0.11,1.969,0,3.238-0.027c-0.234-0.144-0.339-0.35-0.554-0.558l-0.32-0.103
						c0.148,0.08,0.326,0.161,0.424,0.267c-0.681,0.132-1.254,0.325-1.922,0.3l0.037-0.26l-1.026,0.341L32.28,30.002z"/>
					<path fill="#CCCCCC" d="M36.146,30.158c-0.292-0.029-0.482-0.094-0.623-0.179l-0.33,0.135
						C35.443,30.158,35.622,30.255,36.146,30.158z"/>
					<polygon fill="#CCCCCC" points="32.157,29.962 33.183,29.621 33.211,29.331 32.877,29.318 33.079,29.147 32.999,29.103 
						32.67,29.113 31.916,29.886 					"/>
					<path fill="#CCCCCC" d="M32.28,30.002c0.648,0.2,1.267,0.357,1.716,0.646l0.663-0.292l-0.308-0.166
						c0.437-0.119,0.658-0.11,0.842-0.076l0.33-0.135l-0.005-0.004C34.249,30.002,33.349,30.112,32.28,30.002z"/>
					<path fill="#CCCCCC" d="M34.393,29.053c-0.025,0.101,0.098,0.179,0.251,0.261l0.32,0.103
						C34.834,29.29,34.667,29.165,34.393,29.053z"/>
					<polygon fill="#CCCCCC" points="35.147,28.629 35.025,28.674 35.023,28.688 					"/>
					<path fill="#CCCCCC" d="M35.023,28.688l0.002-0.013c-0.314,0.113-0.49,0.209-0.575,0.288L35.023,28.688z"/>
					<polygon fill="#CCCCCC" points="34.33,29.021 34.393,29.053 34.45,28.962 					"/>
					<path fill="#CCCCCC" d="M36.649,28.774l0.112-0.319c-0.217-0.116-0.432-0.22-0.395-0.355l-0.011-0.006l-0.254,0.045
						l0.402,0.549c-0.231,0.043-0.583,0.188-0.8,0.071l0.286,0.147L36.649,28.774z"/>
					<polygon fill="#CCCCCC" points="36.577,29.489 36.599,29.501 36.998,29.242 36.705,29.26 					"/>
					<path fill="#CCCCCC" d="M36.785,28.334c0.018-0.166-0.06-0.281-0.413-0.243L36.367,28.1L36.785,28.334z"/>
					<path fill="#CCCCCC" d="M36.705,29.26l0.292-0.018l0.378-0.247c-0.83,0.293-0.83,0.075-0.727-0.222l-0.658,0.133
						C36.32,29.006,36.737,29.029,36.705,29.26z"/>
					<polygon fill="#CCCCCC" points="36.538,29.54 36.599,29.501 36.577,29.489 					"/>
					<path fill="#CCCCCC" d="M36.367,28.1c-0.037,0.135,0.177,0.239,0.395,0.355l0.024-0.121L36.367,28.1z"/>
					<polygon fill="#CCCCCC" points="36.372,28.091 36.356,28.094 36.367,28.1 					"/>
					<path fill="#CCCCCC" d="M30.384,32.188l0.156,0.372l-0.135-0.044c0.061,0.077-0.04,0.145-0.518,0.231
						c-0.431,0.935,0.575-0.183,0.635,0.354c0.042-0.419,0.243-0.744,0.804-0.649l0.048-0.166
						C31.042,32.03,30.666,32.144,30.384,32.188z"/>
					<path fill="#CCCCCC" d="M30.008,31.477c-0.374,0.308-0.312,0.521-0.139,0.681L30,32.049
						C29.962,31.939,29.961,31.762,30.008,31.477z"/>
					<polygon fill="#CCCCCC" points="31.589,32.519 31.577,32.503 31.56,32.511 					"/>
					<polygon fill="#CCCCCC" points="31.327,32.452 31.56,32.511 31.577,32.503 31.375,32.286 					"/>
					<path fill="#CCCCCC" d="M30.384,32.188C30.2,32.216,30.058,32.213,30,32.049l-0.131,0.108c0.175,0.161,0.466,0.268,0.536,0.358
						l0.135,0.044L30.384,32.188z"/>
					<polygon fill="#CCCCCC" points="28.804,32.471 28.314,32.846 29.067,33.127 					"/>
					<path fill="none" stroke="#CCCCCC" stroke-width="0" stroke-linecap="round" stroke-linejoin="round" d="M33.362,28.508
						c-0.333-0.012-0.523-0.444-1.324-0.209C32.933,28.28,32.443,28.845,33.362,28.508z"/>
					<polygon fill="#CCCCCC" points="29.725,29.659 29.712,29.816 30.943,29.524 					"/>
					<path fill="#CCCCCC" d="M30.55,36.571c0.03-0.143-0.038-0.248-0.147-0.343C30.331,36.346,30.35,36.473,30.55,36.571z"/>
					<polygon fill="#CCCCCC" points="30.293,36.156 30.403,36.229 30.48,36.143 					"/>
					<path fill="#CCCCCC" d="M30.97,34.838l-0.099-0.104L30.97,34.838z"/>
					<path fill="#CCCCCC" d="M27.326,35.047l-0.281-0.189c-0.008,0.124,0.068,0.238,0.2,0.349L27.326,35.047z"/>
					<path fill="#CCCCCC" d="M30.97,34.838l0.292,0.301l0.215-0.136l-0.185,0.167l0.236,0.23l-0.302,0.156
						c0.142,0.192,0.506,0.3,0.458,0.478l0.029,0.05c1.753-0.679-0.574-0.575,0.452-1.347C31.904,35.007,31.222,35.006,30.97,34.838
						z"/>
					<path fill="#CCCCCC" d="M29.978,36.018l0.141-0.059c0.225-0.743-2.7-0.131-1.599-0.895l-0.113-0.156
						c-0.129,0.113-0.05,0.42-0.369,0.548l-0.516-0.292l-0.17,0.114C27.917,35.597,29.244,35.815,29.978,36.018z"/>
					<path fill="#CCCCCC" d="M31.227,35.555l-1.128,0.479l0.019-0.075l-0.141,0.059l0.316,0.138l0.187-0.014
						c0.288-0.281,1.034-0.472,1.205-0.109C31.733,35.855,31.369,35.747,31.227,35.555z"/>
					<polygon fill="#CCCCCC" points="31.478,35.002 31.263,35.139 31.293,35.169 					"/>
					<polygon fill="#CCCCCC" points="27.522,35.164 27.326,35.047 27.244,35.206 27.352,35.278 					"/>
					<path fill="#CCCCCC" d="M28.77,34.914c-0.208-0.069-0.305-0.055-0.363-0.005l0.113,0.156L28.77,34.914z"/>
					<path fill="#CCCCCC" d="M29.58,35.029c0.632-0.072,1.033-1.062,0.85-0.833c-0.307,0.087-0.599,0.256-0.866,0.312l-0.189,0.27
						L29.58,35.029z"/>
					<polygon fill="#CCCCCC" points="29.079,34.403 29.156,34.504 29.207,34.483 					"/>
					<path fill="#CCCCCC" d="M29.563,34.507c-0.127,0.025-0.247,0.024-0.356-0.023l-0.051,0.021l0.218,0.272L29.563,34.507z"/>
					<path fill="#CCCCCC" d="M26.555,31.91l-0.221,0.025c0.857,0.146,0.777-0.645,1.152-0.931c-0.281-0.145-0.712-0.172-1.125-0.213
						c-0.285,0.094-0.609,0.233-0.688,0.313l0.015,0.059c-0.05-0.006-0.043-0.03-0.015-0.059c-0.092-0.255,0.018-0.35,0.202-0.381
						l-0.247-0.07c0.116-0.255,0.305-0.408,0.494-0.54l-0.49-0.181c0.06,0.38-0.12,0.555-0.351,0.717l-0.363,0.257l-0.087,0.078
						l-0.042,0.043l-0.01,0.011l-0.001,0v0c0.973,13.479,0.27,3.736,0.487,6.744l0.002,0l0.005-0.001l0.01-0.003l0.04-0.013
						l0.301-0.14l-0.297-0.168l-0.01-0.005l-0.002-0.001l-0.001,0c0.393,5.441-0.536-7.414-0.44-6.09l0,0l0.004,0l0.017,0.003
						l0.035,0.006L25,31.385l0.146,0.019l0.606,0.061C26.146,31.515,26.485,31.609,26.555,31.91z"/>
					<path fill="#CCCCCC" d="M25.671,31.105c0.079-0.08,0.404-0.219,0.688-0.313l-0.486-0.067
						C25.689,30.755,25.58,30.85,25.671,31.105z"/>
					<path fill="#CCCCCC" d="M25.687,31.164l-0.015-0.059C25.644,31.134,25.636,31.158,25.687,31.164z"/>
					<path fill="#CCCCCC" d="M25.626,30.654l0.247,0.07l0.649,0.017c0.165-0.045,0.289-0.063,0.284-0.019l-0.284,0.019l-0.163,0.05
						c0.414,0.041,0.845,0.068,1.125,0.213c0.094-0.069,0.212-0.11,0.379-0.1c-0.431-0.196-0.723-0.343-1.014-0.48l-0.071,0.031
						l0.019,0.063c-0.056-0.007-0.049-0.032-0.019-0.063l-0.016-0.071l-0.643-0.27C25.932,30.246,25.742,30.399,25.626,30.654z"/>
					<path fill="#CCCCCC" d="M26.807,30.722c0.005-0.044-0.119-0.026-0.284,0.019L26.807,30.722z"/>
					<polygon fill="#CCCCCC" points="25.874,30.724 26.36,30.792 26.523,30.741 					"/>
					<polygon fill="#CCCCCC" points="26.764,30.385 26.78,30.456 26.838,30.417 					"/>
					<polygon fill="#CCCCCC" points="26.78,30.456 26.851,30.425 26.838,30.417 					"/>
					<path fill="#CCCCCC" d="M26.799,30.519l-0.019-0.063C26.75,30.487,26.743,30.512,26.799,30.519z"/>
					<path fill="none" stroke="#CCCCCC" stroke-width="0" stroke-linecap="round" stroke-linejoin="round" d="M31.522,36.331
						c1.374-0.034-0.482,0.816,0.994,0.461C32.642,36.317,32.17,36.203,31.522,36.331z"/>
					<polygon fill="#CCCCCC" points="41.019,24.013 40.882,23.968 40.866,25.024 41.005,25.071 					"/>
					<path fill="#CCCCCC" d="M34.42,34.354l-0.218-0.12c-0.823,0.051-0.141-1.455-1.211-0.36
						C33.641,34.092,33.298,34.768,34.42,34.354z"/>
					<path fill="none" stroke="#CCCCCC" stroke-width="0" stroke-linecap="round" stroke-linejoin="round" d="M35.811,33.958
						l-0.13,0.052c0.377,0.103,0.872,0.06,1.058-0.253c-1.114,0.537-0.691-0.452-1.384-0.432c-0.248,0.173-0.214,0.359-0.048,0.501
						l0.257,0.02L35.811,33.958z"/>
					<polygon fill="#EDEDED" points="35.68,34.011 35.811,33.958 35.563,33.848 35.306,33.828 					"/>
					<path fill="#CCCCCC" d="M40.858,28.317c0.118-0.13,0.243-0.28,0.291-0.591L40.858,28.317z"/>
					<path fill="#CCCCCC" d="M39.786,23.297c-0.165,0.023-0.13,0.148-0.048,0.311L39.786,23.297z"/>
					<path fill="#CCCCCC" d="M39.623,24.367l0.4,0.04l-0.103-0.161C39.877,24.31,39.79,24.356,39.623,24.367z"/>
					<path fill="#CCCCCC" d="M39.919,24.245l0.103,0.161l0.636,0.033c-0.058-0.298,0.249-0.431-0.666-1.133l-0.207-0.009
						l-0.048,0.311C39.846,23.819,40.024,24.089,39.919,24.245z"/>
					<path fill="#CCCCCC" d="M40.974,24.86l-0.241-0.419l-0.074-0.001C40.679,24.547,40.763,24.679,40.974,24.86z"/>
					<path fill="#CCCCCC" d="M40.829,28.592l0.03-0.275l-0.235,0.197C40.698,28.584,40.766,28.608,40.829,28.592z"/>
					<path fill="#CCCCCC" d="M43.534,26.772c-0.696-2.113-1.746-2.055-1.84-2.105c0.108,0.314,0.093,0.481,0.283,0.902
						C43.544,26.387,43.15,28.699,43.534,26.772z"/>
					<path fill="#CCCCCC" d="M39.982,30.184l0.058-0.565c-0.138,0.158-0.246,0.346-0.36,0.42l0.067,0.497
						C39.825,30.394,39.938,30.226,39.982,30.184z"/>
					<path fill="#CCCCCC" d="M41.06,31.981c0.871-1.524-0.197-0.533-0.752-0.469l-0.172,0.485
						C40.503,31.847,40.974,31.58,41.06,31.981z"/>
					<path fill="#CCCCCC" d="M40.951,26.145c-0.112-0.132-0.194-0.3-0.209-0.508c-0.393-0.093-0.365,0.053-0.249,0.24
						c0.176,0.071,0.307,0.161,0.409,0.256L40.951,26.145z"/>
					<path fill="#CCCCCC" d="M41.934,27.612l-0.166-0.286c0.016,0.163-0.009,0.268-0.043,0.36L41.934,27.612z"/>
					<path fill="#CCCCCC" d="M40.901,26.132l-0.324-0.142c0.209,0.271,0.466,0.536-0.095,0.276c0.734,0.923,0.616,0.646,0.983,0.596
						C41.255,26.699,41.151,26.352,40.901,26.132z"/>
					<path fill="#CCCCCC" d="M39.145,30.426c0.202-0.229,0.229-0.068,0.279,0.078c0.332-0.442-0.031-0.45-0.169-0.564
						c-0.257,0.264-0.388,0.496-0.468,0.719c0.141-0.078,0.275-0.122,0.378-0.121L39.145,30.426z"/>
					<path fill="#CCCCCC" d="M41.25,30.395l-0.295,0.272c0.649,0.465,0.96,0.115,1.256-0.328
						C41.829,30.397,41.348,30.881,41.25,30.395z"/>
					<path fill="#CCCCCC" d="M41.473,30.039l0.197,0.042c-0.143-0.039-0.232-0.197-0.225-0.56l-0.06,0.299L41.473,30.039z"/>
					<polygon fill="#CCCCCC" points="42.284,29.873 42.611,29.781 42.964,29.452 42.904,29.453 					"/>
					<path fill="#CCCCCC" d="M42.986,27.114c-0.246,1.771-1.015,1.548-1.307,2.046c0.331-0.114,0.568-0.047,0.982-0.32
						C42.968,28.48,43.356,27.992,42.986,27.114z"/>
					<path fill="#CCCCCC" d="M43.323,29.178c0.164-0.115,0.333-0.21,0.514-0.256l-0.138,0.329c0.275-0.392,1-0.201,1.144-2.709
						c-0.9-2.047-0.139,0.593-1.066,1.981C43.639,28.779,43.483,29.001,43.323,29.178z"/>
					<polygon fill="#CCCCCC" points="39.704,32.056 39.742,32.08 39.792,32.028 					"/>
					<polygon fill="#CCCCCC" points="40.952,30.163 41.246,29.949 41.245,29.935 					"/>
					<path fill="#CCCCCC" d="M38.282,31.109l-0.022-0.49c-0.662,0.493-0.225,0.468-0.121,0.694L38.282,31.109z"/>
					<path fill="#CCCCCC" d="M39.265,31.353l-0.032-0.339c-0.12-0.194-0.278-0.301-0.495-0.2c-0.1,0.336-0.134,0.71-0.499,1.013
						l0.042-0.584l-0.133,0.132c-0.001,0.083-0.069,0.192-0.276,0.354c-0.049-0.313-1.013,0.004-1.223,0.551
						c1.494-1.551,0.99,0.943,1.437,0.773c-0.079,0.088-0.268,0.152-0.455,0.26c0.146,0.026,0.36-0.03,0.711-0.259
						c-0.152,0.319-0.586,0.473-0.976,0.448l-0.009,0.008c1.604-0.079,0.865-1.137,2.099-1.935l-0.122-0.361L39.265,31.353z"/>
					<path fill="#CCCCCC" d="M38.341,33.054c-0.351,0.229-0.565,0.285-0.711,0.259l-0.265,0.189
						C37.755,33.527,38.189,33.373,38.341,33.054z"/>
					<path fill="#CCCCCC" d="M40.493,25.876l0.084,0.115l0.324,0.142C40.799,26.037,40.669,25.947,40.493,25.876z"/>
					<path fill="#CCCCCC" d="M42.284,29.873c-0.262,0.169-0.463,0.247-0.613,0.208l-0.197-0.042c0.006,0.142-0.095,0.25-0.223,0.356
						c0.097,0.487,0.579,0.003,0.961-0.056l0.399-0.558L42.284,29.873z"/>
					<path fill="#CCCCCC" d="M42.964,29.452c0.07-0.029,0.243-0.204,0.359-0.274c0.16-0.177,0.315-0.398,0.454-0.655
						c-0.25,0.279-0.633,0.75-0.874,0.93L42.964,29.452z"/>
					<polygon fill="#CCCCCC" points="38.282,31.109 38.138,31.313 38.147,31.375 38.28,31.243 					"/>
					<path fill="#CCCCCC" d="M40.972,29.418c-0.128,0.145-0.219,0.311-0.246,0.51C40.854,29.859,40.948,29.723,40.972,29.418z"/>
					<path fill="#CCCCCC" d="M41.311,25.119c-0.171-0.117-0.251-0.184-0.337-0.259c0.18,0.541,0.779,0.63,1.16,2.07
						c-0.314,0.045-0.867-0.555-1.183-0.785l-0.05-0.012c0.25,0.219,0.354,0.566,0.564,0.731c0.093-0.01,0.253,0.042,0.303,0.463
						l0.166,0.286l-0.208,0.075c-0.079,0.252-0.266,0.634-0.521,0.94c-0.252,0.113-0.35,0.069-0.375-0.035
						c-0.062,0.016-0.131-0.008-0.205-0.078c-0.213,0.159-0.353,0.273-0.163,0.672l-0.06-0.18c0.304-0.487,0.221,0.473,0.602,0.142
						c0.09-1.401,1.747,0.67,1.138-2.715c1.294,2.132-0.739,2.361-1.102,2.922c0.357,0.795-1.162,0.999-1.706,1.859l0.122,0.361
						l0.338-0.203c-0.151,0.413-0.169,0.612-0.09,0.683l0.088-0.028l-0.05,0.052c0.086,0.031,0.229-0.014,0.394-0.083l0.172-0.485
						c-0.194,0.045-0.343,0.022-0.38-0.14c0.156-0.646,0.691-1.007,1.024-1.209l0.293-0.228l0.001,0.014l0.128-0.147l0.012,0.018
						l0.06-0.299l0.026-0.314l0.208-0.046c0.292-0.498,1.061-0.275,1.307-2.046c0.371,0.878-0.018,1.366-0.325,1.726l0.788-0.597
						c0.048-0.181,0.191-0.882,0.084-1.47c-0.384,1.927,0.011-0.386-1.557-1.203c-0.19-0.421-0.175-0.588-0.283-0.902
						C41.387,24.601,41.207,24.685,41.311,25.119z"/>
					<path fill="#CCCCCC" d="M39.424,30.503c0.042,0.115,0.096,0.223,0.29,0.094l0.033-0.062l-0.067-0.497
						c-0.101,0.065-0.241,0.071-0.363-0.174l-0.062,0.075C39.393,30.053,39.756,30.061,39.424,30.503z"/>
					<path fill="#CCCCCC" d="M39.232,31.014l-0.068-0.476c-0.103-0.001-0.237,0.043-0.378,0.121l-0.049,0.155
						C38.954,30.712,39.113,30.819,39.232,31.014z"/>
					<path fill="#CCCCCC" d="M40.715,29.933l-0.188-0.551c-0.208-0.022-0.36,0.092-0.487,0.237l-0.058,0.565
						C40.194,29.977,40.5,30.042,40.715,29.933z"/>
					<path fill="#CCCCCC" d="M40.527,29.382l0.188,0.551l0.011-0.005c0.026-0.2,0.118-0.365,0.246-0.51l0.006-0.188l0.061,0.126
						c0.362-0.561,2.396-0.79,1.102-2.922c0.609,3.385-1.048,1.314-1.138,2.715c-0.381,0.332-0.297-0.628-0.602-0.142l0.06,0.18
						l0.104,0.197L40.527,29.382z"/>
					<path fill="#CCCCCC" d="M35.83,34.837c0.361-0.003,0.658,0.088,0.677,0.341l-0.071-0.541l-0.412,0.075L35.83,34.837z"/>
					<path fill="#CCCCCC" d="M34.485,34.733l-0.354,0.685c0.136-0.353,0.928-0.578,1.567-0.574l0.054-0.122
						C35.242,34.691,34.957,34.48,34.485,34.733z"/>
					<polygon fill="#CCCCCC" points="35.752,34.722 35.698,34.844 35.83,34.837 36.024,34.712 					"/>
					<path fill="#CCCCCC" d="M37.674,34.054l0.292-0.028C37.837,33.991,37.749,34.026,37.674,34.054z"/>
					<path fill="#CCCCCC" d="M37.441,34.518l0.027-0.177c-0.301,0.002-0.648,0.065-0.965,0.169l-0.067,0.127
						c0.387,0.231,1.051,0.042,1.646-0.155l-0.161-0.081L37.441,34.518z"/>
					<path fill="#CCCCCC" d="M37.674,34.054c-0.268,0.009-0.534,0.059-0.752,0.15l0.594,0.01L37.674,34.054z"/>
					<path fill="#CCCCCC" d="M38.126,34.318l0.028,0.133c0.634-0.266,1.185-0.478,1.257,0.047c0.167-0.451,0.009-0.558-0.278-0.521
						l-0.49,0.136L38.126,34.318z"/>
					<path fill="#CCCCCC" d="M36.503,34.51c0.317-0.104,0.665-0.167,0.965-0.169l0.047-0.126l-0.594-0.01
						C36.742,34.278,36.594,34.378,36.503,34.51z"/>
					<polygon fill="#CCCCCC" points="37.922,34.401 38.083,34.482 38.154,34.452 38.126,34.318 					"/>
					<path fill="#CCCCCC" d="M39.133,33.978l-0.49,0.136L39.133,33.978z"/>
					<path fill="#FFFFFF" d="M39.982,30.184c-0.044,0.042-0.157,0.21-0.235,0.352l0.01,0.103
						C39.855,30.516,39.97,30.308,39.982,30.184z"/>
					<path fill="#FFFFFF" d="M39.328,30.626l0.096-0.123c-0.05-0.146-0.077-0.307-0.279-0.078l0.02,0.112L39.328,30.626z"/>
					<polygon fill="#FFFFFF" points="39.265,31.353 39.333,31.215 39.232,31.014 					"/>
					<path fill="#FFFFFF" d="M40.726,29.928l-0.005,0.018l-0.006-0.013c-0.215,0.108-0.521,0.044-0.733,0.251
						c-0.012,0.124-0.126,0.332-0.225,0.455l-0.01-0.103l-0.033,0.062c-0.193,0.129-0.248,0.021-0.29-0.094l-0.096,0.123
						l-0.163-0.088l0.068,0.476l0.101,0.201c0.544-0.861,2.063-1.064,1.706-1.859l-0.067,0.062
						C40.948,29.723,40.854,29.859,40.726,29.928z"/>
					<polygon fill="#FFFFFF" points="40.972,29.418 41.039,29.355 40.978,29.229 					"/>
					<path fill="#FFFFFF" d="M38.282,31.109c-0.039,0.108,2.551-1.148,2.433-1.176l0.006,0.013
						C40.837,29.969,38.242,31.223,38.282,31.109z"/>
					<polygon fill="#CCCCCC" points="38.004,21.709 38,21.717 38.019,21.726 					"/>
					<path fill="#CCCCCC" d="M37.553,22.638c0.64-0.331-0.856-0.875-0.589-1.103l-0.282-0.082
						C36.895,22.108,37.166,22.4,37.553,22.638z"/>
					<path fill="#CCCCCC" d="M39.208,24.187c-0.047-0.519-0.389-1.132-0.562-1.508l-1.043-0.01
						C38.015,23.033,38.77,23.309,39.208,24.187z"/>
					<path fill="#CCCCCC" d="M37.553,22.638l0.05,0.031l1.043,0.01c-0.159-0.312-0.366-0.66-0.626-0.953L38,21.717
						c-0.119,0.44-0.567,0.011-1.037-0.182C36.697,21.763,38.193,22.307,37.553,22.638z"/>
					<path fill="#CCCCCC" d="M35.32,22.462l-0.619-0.333l0.694,0.897c-0.944-1.121,1.267-0.016,1.003-0.672
						C36.001,22.556,34.94,21.566,35.32,22.462z"/>
					<path fill="none" stroke="#CCCCCC" stroke-width="0" stroke-linecap="round" stroke-linejoin="round" d="M42.438,24.167
						c-0.202-0.513-0.183-0.396-0.275-0.292L42.438,24.167z"/>
					<path fill="none" stroke="#CCCCCC" stroke-width="0" stroke-linecap="round" stroke-linejoin="round" d="M41.571,23.776
						c-0.046,0.427,0.504,0.313,0.902,0.572l-0.334-0.447C42.035,23.968,41.862,24,41.571,23.776z"/>
					<polygon fill="#EDEDED" points="42.438,24.167 42.164,23.876 42.139,23.901 42.473,24.348 42.517,24.374 					"/>
					<polygon fill="#CCCCCC" points="32.63,21.135 32.5,21.038 32.622,21.155 					"/>
					<polygon fill="#CCCCCC" points="32.929,21.449 32.63,21.135 32.622,21.155 					"/>
					<path fill="#CCCCCC" d="M32.5,21.038c-0.197-0.16-0.306-0.381-0.439-0.563c0.026,0.346-0.488,0.479-0.632,0.558
						C31.837,20.864,32.14,20.837,32.5,21.038z"/>
					<path fill="#CCCCCC" d="M35.969,40.911l0.037-0.203l-0.688-0.079C35.488,40.694,35.698,40.783,35.969,40.911z"/>
					<path fill="#CCCCCC" d="M34.215,39.758l0.265-0.133l-0.491,0.188c0.614,0.685,0.591,0.534,1.328,0.817l0.688,0.079
						C35.874,40.314,34.39,40.406,34.215,39.758z"/>
					<polygon fill="none" stroke="#CCCCCC" stroke-width="0" stroke-linecap="round" stroke-linejoin="round" points="
						30.479,42.812 30.068,42.916 30.162,42.939 					"/>
					<polygon fill="#EDEDED" points="30.162,42.939 30.068,42.916 30.035,42.922 					"/>
					<polygon fill="#CCCCCC" points="34.557,39.597 34.548,39.591 34.48,39.625 					"/>
					<path fill="none" stroke="#CCCCCC" stroke-width="0" stroke-linecap="round" stroke-linejoin="round" d="M45.829,27.973
						c-0.224,0.028-0.557-0.026-0.613-0.068C45.327,28.034,45.552,28.029,45.829,27.973z"/>
					<polygon fill="#CCCCCC" points="43.309,37.381 43.265,37.389 43.423,37.749 					"/>
					<path fill="#CCCCCC" d="M34.557,4.422c-0.299-0.701-0.354-0.977-0.164-0.829l-0.447,0.152
						c-0.091-0.147-0.014,0.414,0.524,0.828L34.557,4.422z"/>
					<path fill="#CCCCCC" d="M29.375,14.88c0.655-0.144,0.542-0.592,1.002-0.808c0.512-1.855,1.626-3.59,2.557-5.189l0.3-0.57
						l0.141-0.275l0.071-0.136l0.036-0.068l0.009-0.017l0.004-0.009l0.001-0.002c-0.182-0.629,1.593,5.468,0.84,2.887l-0.006-0.002
						l-0.047-0.021l-1.529-0.664C31.732,9.495,30.698,8.878,29.668,8c-0.127,0.732-0.108,1.379-0.065,1.667l0.028,0.05
						c0.098-0.181,0.237-0.334,0.443-0.449c1.397,0.762,2.69,1.206,3.981,1.685l0.121,0.046L34.18,11
						c-0.437-1.504,0.984,3.368-0.979-3.372l-0.002,0.005l-0.005,0.01l-0.009,0.021l-0.019,0.042l-0.077,0.166L32.93,8.208
						c-0.092,0.218-0.226,0.461-0.393,0.718l-0.98,1.538c-1.319,2.079-2.991,4.41-2.884,7.133c-0.261,0.449,0.05,0.792-0.415,1.335
						c0.417,0.191,2.555,2.791,2.155,0.723l0.033-0.583c-0.164-0.144-0.414-0.244-0.712-0.332c0.147,0.025,0.529,0.17,0.778,0.073
						c0.816-1.027,2.381-0.435,2.734-1.7c0.188-0.383,0.563-0.919,0.824-1.429c-1.147,0.362-2.815,0.374-3.669,1.396
						C28.717,18.782,29.883,15.11,29.375,14.88z"/>
					<path fill="#CCCCCC" d="M29.735,18.741c0.299,0.088,0.548,0.188,0.712,0.332l0.066-0.259
						C30.265,18.911,29.882,18.766,29.735,18.741z"/>
					<path fill="#CCCCCC" d="M30.376,14.072c-0.46,0.216-0.347,0.664-1.002,0.808c0.508,0.23-0.658,3.902,1.028,2.2
						c0.854-1.021,2.522-1.033,3.669-1.396c0.68-1.101,1.438-2.281,2.147-3.031l0.064,0.15c0.242-0.617,0.509-0.982,0.872-1.525
						l0.533-0.71l0.067-0.085l0.034-0.042l0.017-0.021l0.009-0.011l0.004-0.005l0.002-0.002c1.098,3.77-1.495-5.138-1.229-4.22
						l-0.001,0l-0.116-0.086l-0.228-0.17C35.594,5.488,35.134,5.1,34.184,5.11l0.286-0.538c-0.538-0.414-0.615-0.975-0.524-0.828
						C32.021,3.927,29.779,5.711,29.668,8c1.03,0.878,2.064,1.495,3.084,2.007l1.529,0.664l0.047,0.021l0.006,0.002
						c0.753,2.582-1.022-3.516-0.84-2.887l-0.001,0.002l-0.004,0.009L33.48,7.834l-0.036,0.068l-0.071,0.136l-0.141,0.275l-0.3,0.57
						C32.002,10.481,30.889,12.217,30.376,14.072z"/>
					<path fill="#FFFFFF" d="M50.91,33.464l-0.066,0.062c0.372-0.155,0.695-0.234,0.478,0.232c0.428-0.528,0.165-0.412,0.26-0.933
						l-0.224,0.226L50.91,33.464z"/>
					<polygon fill="#FFFFFF" points="51.581,32.825 51.583,32.814 51.357,33.051 					"/>
					<polygon fill="#FFFFFF" points="50.91,33.464 50.839,33.529 50.843,33.526 					"/>
					<path fill="#CCCCCC" d="M42.86,26.726c-0.369-0.081-0.754-0.163-0.949-0.366c-0.647,0.698-0.505,0.984-0.593,1.474l0.831,0.043
						l-0.72-0.444c0.372-0.086,0.744-0.073,1.112-0.016C42.748,27.159,42.85,26.93,42.86,26.726z"/>
					<path fill="#CCCCCC" d="M43.744,27.378c0.042-0.192-0.031-0.323-0.167-0.416l-0.008,0.468L43.744,27.378z"/>
					<path fill="#CCCCCC" d="M40.678,28.773c0.008,0.303-0.023,0.673,0.333,0.811l-0.049-0.863l-0.069,0.117L40.678,28.773z"/>
					<path fill="#CCCCCC" d="M37.97,29.356c0.086,0.131,0.26,0.23,0.576,0.284c0.317-0.552,0.356-0.866,0.371-1.129l-0.22,0.133
						c0.464-0.457,0.068-0.541-0.347-0.634c-0.233,0.488-0.521,0.938-0.428,1.249l0.342,0.061L37.97,29.356z"/>
					<path fill="#CCCCCC" d="M38.938,28.202c0.041-0.293,0.183-0.615,0.842-1.233c0.536,0.309,0.693,0.755,0.146,1.451l0.294-0.067
						c-0.061-0.371,0.322-0.885,0.603-1.439c-0.477-0.221-1.716,0.21-2.21,0.064l0.004,0.087
						C39.583,27.041,38.383,28.115,38.938,28.202z"/>
					<polygon fill="#CCCCCC" points="38.546,27.53 38.46,27.762 38.68,27.717 					"/>
					<polygon fill="#CCCCCC" points="38.262,29.319 37.92,29.259 37.97,29.356 					"/>
					<path fill="#CCCCCC" d="M38.696,28.644l0.22-0.133l0.022-0.309c-0.555-0.087,0.644-1.162-0.32-1.137l-0.072,0.465l0.134,0.187
						l-0.22,0.045l-0.112,0.248C38.764,28.104,39.16,28.188,38.696,28.644z"/>
					<path fill="#CCCCCC" d="M40.221,28.353c0.396-0.056,0.445,0.153,0.457,0.421l0.216,0.064l0.069-0.117l-0.044-0.906l0.4,0.019
						c0.087-0.49-0.054-0.775,0.593-1.474l-0.062-0.075l-0.836,0.896c-0.013-0.133-0.082-0.216-0.19-0.267
						C40.543,27.468,40.161,27.982,40.221,28.353z"/>
					<path fill="#CCCCCC" d="M42.86,26.726c-0.01,0.205-0.112,0.433-0.319,0.69c0.373,0.046,0.719,0.089,1.027,0.015l0.008-0.468
						C43.409,26.848,43.14,26.785,42.86,26.726z"/>
					<path fill="#CCCCCC" d="M49.028,34.564l-0.244,0.262l0.736-0.139l0.639-0.557C49.819,34.157,49.451,34.275,49.028,34.564z"/>
					<path fill="#CCCCCC" d="M40.433,28.773l-0.205,0.2l0.288,0.068C40.444,28.918,40.423,28.836,40.433,28.773z"/>
					<path fill="#CCCCCC" d="M38.826,39.833c0.099-0.079,0.209-0.191,0.339-0.357l-0.3-0.074l-0.201,0.029L38.826,39.833z"/>
					<path fill="#CCCCCC" d="M38.414,39.982l0.29-0.066L38.414,39.982z"/>
					<path fill="#CCCCCC" d="M41.88,38.488l0.153,0.305c-0.44,0.296-0.673,0.132-0.958,0.018l0.264,0.326
						c0.707-0.156,0.896-0.453,0.984-0.758L41.88,38.488z"/>
					<path fill="#CCCCCC" d="M42.432,25.89c0.25-0.435,0.66,0.281,1.367-0.287c-0.308-0.21-1.149-0.223-1.758-0.253
						c-0.033,0.157,0.077,0.224,0.289,0.362c-1.712,0.135,0.411-1.071-1.026-1.207l0.521-0.167l0.02-0.007
						c0.369-0.023,0.693,0.016,0.871-0.319c3.533-1.373,4.604-3.6,9.278-3.1c-1.997,0.477-3.622,1.275-6.064,2.04
						c-0.246,0.343-0.612,0.265-1.039,0.248c-0.216,0.01-0.445,0.043-0.672,0.178l0.073,0.009c1.539,0.17-0.856,1.475,1.008,1.358
						c-0.226-0.172-0.331-0.235-0.283-0.412c0.675,0.079,1.636,0.208,1.95,0.467c-0.891,0.552-1.274-0.376-1.607,0.196
						c1.77,0.557,1.768,1.236,2.287,2.353c0.456-0.227,0.77-0.377,0.737-0.633c0.756,0.022,0.929,0.273,0.731,0.725
						c0.033,0.107-0.023,0.137-0.118,0.164c0.895,0.017,2.271-0.175,2.067,0.884l0.992-0.07h0.014h0.001h0
						c-1.923-5.263-0.533-1.458-0.962-2.633l-0.001,0.001l-0.003,0.002l-0.005,0.005l-0.022,0.02l-0.045,0.039l-0.091,0.076
						l-0.183,0.145l-0.371,0.266l-0.206-0.575l0.559-0.298l0.018-0.009l0.001,0c-1.122-3.072,1.53,4.185,1.256,3.437l-0.002-0.001
						l-0.004-0.001l-0.009-0.002l-0.034-0.01l-0.068-0.02l-0.135-0.04l-0.269-0.083l-1.073-0.313
						c-0.726-0.204-1.51-0.308-2.437,0.033c0.017-0.995-1.213-0.598-2.044-0.502c0.084-0.02,0.133-0.063,0.089-0.154
						c0.13-0.429-0.066-0.656-0.757-0.597c0.057,0.229-0.21,0.4-0.606,0.655l-0.474-0.826l0.73,0.093l-0.751-0.541
						c0.925-0.169,1.808,0.311,2.531,0.125c0.283-0.82-1.637-0.755-1.97-1.343l-1,0.911C43.721,25.844,43.101,25.844,42.432,25.89z
						 M48.876,27.62l0.119-0.014L48.876,27.62c-0.303,0.026-0.543,0.001-0.644-0.152C48.288,27.521,48.635,27.622,48.876,27.62z"/>
					<path fill="#CCCCCC" d="M29.464,42.129c-0.226-0.116-0.259-0.554-0.608-0.691c-0.111,0.342-0.176,0.725-0.148,1.187
						l0.259-0.141l-0.104-0.111l0.529-0.207L29.464,42.129l0.007,0.005l-0.079,0.031l-0.286,0.146l0.05,0.105
						c0.516-0.107,0.511,0.533,1.323,0.395l0.886-0.222l-0.333-0.158C29.996,42.694,30.392,41.717,29.464,42.129z"/>
					<polygon fill="#CCCCCC" points="43.265,37.389 43.176,37.19 43.2,37.399 					"/>
					<path fill="#CCCCCC" d="M32.748,41.056l0.393,0.187l0.361-0.208l-0.02-0.257C33.319,40.765,33.091,40.835,32.748,41.056z"/>
					<path fill="#CCCCCC" d="M42.407,28.044l-0.333,0.185c0.807,0.004,0.365,1.304,1.559,0.627l-0.072-1.32l0.823,0.305
						c-0.185,0.252-0.279,0.379-0.49,0.461l0.223-0.076l0,0c0.195-0.076,0.671-0.347,0.511-0.693
						c0.909-0.425,0.397,0.666,1.09,0.544l0.447-0.179l-0.222-0.633c0.612,0.341,1.315-0.423,2.039-0.267l-0.196-0.331
						c1.271,0.032-0.116,0.31,0.054,1.033l1.253-0.625c-0.6-0.25-1.036-1.142-1.958-0.575c0.17-0.095,0.236-0.22,0.362-0.464
						l-0.751-0.202l0.225,1.19c-1.056,0.657-0.751-0.517-1.483-0.476l0.276-0.188c-0.636,0.488-0.948-0.042-1.464-0.09
						c0.468,0.879-0.515,0.522-0.111,1.103l-0.728-0.128l0.083-0.114c-0.817-0.608-0.905,0.229-1.671,0.354l-0.634,0.529
						C41.567,28.193,41.868,28.385,42.407,28.044z"/>
					<path fill="#CCCCCC" d="M40.854,28.36l-0.225,0.22C40.72,28.53,40.813,28.474,40.854,28.36z"/>
					<path fill="#CCCCCC" d="M46.77,28.243c-0.136-0.324-0.355-0.395-0.604-0.344l0.003,0.011c-0.195,0.1-0.335,0.146-0.451,0.167
						l-0.569,0.348c0.645,0.503,0.981,1.483,2.424,0.292L47.42,27.89l0.317-0.134l-0.704-0.431L46.77,28.243z"/>
					<polygon fill="#CCCCCC" points="29.392,42.166 28.863,42.373 28.968,42.484 29.156,42.417 29.106,42.312 					"/>
					<polygon fill="#CCCCCC" points="29.464,42.129 29.392,42.166 29.471,42.135 					"/>
					<path fill="#CCCCCC" d="M48.876,27.62c-0.242,0.001-0.589-0.099-0.644-0.152C48.333,27.621,48.574,27.646,48.876,27.62z"/>
					<path fill="#CCCCCC" d="M44.19,27.034l0.73,0.093l-0.751-0.541c0.925-0.169,1.808,0.311,2.531,0.125
						c0.283-0.82-1.637-0.755-1.97-1.343l-1,0.911c-0.009-0.437-0.629-0.436-1.298-0.39l-0.029,0.047
						C43.493,26.167,43.87,26.53,44.19,27.034z"/>
					<path fill="#CCCCCC" d="M38.837,37.99l-0.64-0.403C37.857,38.248,38.469,38.003,38.837,37.99z"/>
					<path fill="#CCCCCC" d="M51.993,20.913l0.618,0.08l0.32,0.051l0.005,0l0.001,0c7.17,19.625,1.987,5.44,3.588,9.82v0l-0.002,0
						l-0.002,0.001l-0.008,0.006l-0.016,0.011l-0.031,0.022L56.4,30.951l-0.133,0.089c-1.197,0.79-2.228-0.821-3.82,0.622
						c-0.25,0.385-0.548,0.77-0.864,1.152c0.022-0.138,0.063-0.315,0.149-0.571c-0.582,0.178-1.191,0.214-1.784,0.283l0.846,0.965
						l-0.699,0.306c0.111,0.027,0.443-0.143,0.744-0.268l-0.681,0.601c-0.339,0.027-0.708,0.146-1.131,0.434l-0.244,0.262
						c-0.6,0.126-1.124,0.208-1.599-0.193l0.089,0.52l-0.987,0.027l0.402,0.562c-1.223,0.246-2.041,0.997-3.61,1.227l0.096,0.221
						l0.024,0.209c-0.822,0.147-0.755,0.558-0.877,0.979l-0.443,0.109c-0.375-0.447-1.252-0.117-2.114-0.362
						c-0.007,0.32-0.248,0.861,0.327,0.63c-1.962,1.233-0.878-1.199-2.482-0.14l0.554,0.251l-0.571,0.229
						c0.374-0.098,0.813,0.162,1.272,0.306l-0.201,0.029l0.161,0.402l-0.122,0.083l-0.29,0.066c-0.361-0.026-0.685-0.402-1.638,0.18
						c0.131-0.583-0.302-1.108-1.324-0.625l0.662,0.313c-1.121,0.343-0.666-0.646-1.566-0.259c-0.32-0.166-0.192-1.048-1.429-0.514
						l-0.195,0.477l-0.126-0.059l-1.088-0.164l1.201,0.277c-0.162,0.677,0.459,0.538,0.571,1.169
						c-0.163-0.012-0.391,0.058-0.734,0.278l0.393,0.187c-1.174,0.57-2.091-0.26-3.423,0.578l1.314,0.613
						c-1.036,0.261-0.64-0.715-1.567-0.303c-0.226-0.116-0.259-0.554-0.608-0.691l0.279-0.648l0.681-0.012
						c-0.012,0.039-0.005,0.044,0.017,0.001c0.443,0.025,0.867,0.098,1.208,0.176l-0.204,0.265c0.444-0.109,0.57-0.856,1.794-0.923
						c-0.429-0.688-0.901,0.541-1.328-0.142l-0.12,0.424c-0.675,0.329-0.771-0.358-0.66-0.308c-0.324,0.006-0.519,0.182-0.622,0.333
						c-0.192-0.067-0.323-0.161-0.279-0.317l-0.275,0.125l0.427-0.78c0.051,0.167,0.125,0.321,0.342,0.359l0.247-0.236
						c-0.284-0.063-0.378-0.256-0.455-0.433l0.086-0.261c1.245-0.553,1.357-0.667,3.05-1.15c-0.753-1.004,1.439-2.866,2.459-4.149
						l0.986-0.017c0.981-1.452,2.297-3.172,3.738-4.773l0.288,0.068c-0.072-0.123-0.093-0.206-0.083-0.268l0.196-0.194
						c0.091-0.049,0.184-0.105,0.225-0.22l0.386-0.345c0.328,0.178,0.629,0.37,1.168,0.029l-0.333,0.185
						c0.807,0.004,0.365,1.304,1.559,0.627l-0.072-1.32l0.823,0.305c-0.185,0.252-0.279,0.379-0.49,0.461l0.223-0.076
						c0.066,0.454,0.268,0.533,0.54,0.446l0.119,0.271c-0.826-0.286-1.63,0.549-2.282,0.11l0.17,0.714l-0.516,0.161
						c-0.787,0.078-0.086-1.079-1.157-0.684c0.144,0.393-0.424,0.651-0.651,0.72c0.052,1.062,0.993,0.323,1.808-0.037
						c0.131-0.014,0.292-0.053,0.519-0.146l-0.003-0.015c0.282-0.033,0.513,0.064,0.627,0.431l0.385-1l0.87,0.648
						c-0.324-0.89,1.356-1.062,0.295-1.25l0.309-0.173c0.645,0.503,0.981,1.483,2.424,0.292L47.42,27.89l0.317-0.134l0.156,0.093
						l-0.053-0.147l1.253-0.625c0.337,0.139,0.743,0.067,1.341-0.588l-0.049-0.146l0.371-0.266l0.183-0.145l0.091-0.076l0.045-0.039
						l0.022-0.02l0.005-0.005l0.003-0.002l0.001-0.001c0.429,1.175-0.96-2.63,0.962,2.633h0h-0.001h-0.014l-0.992,0.07
						c0.204-1.059-1.172-0.867-2.067-0.884c0.094-0.027,0.151-0.056,0.118-0.164c0.198-0.452,0.025-0.703-0.731-0.725
						c0.032,0.255-0.282,0.406-0.737,0.633c-0.519-1.117-0.517-1.796-2.287-2.353c0.333-0.572,0.716,0.355,1.607-0.196
						c-0.314-0.259-1.275-0.388-1.95-0.467c-0.048,0.177,0.057,0.24,0.283,0.412c-1.864,0.116,0.531-1.188-1.008-1.358l0.575-0.179
						l0.023-0.008c0.427,0.017,0.793,0.095,1.039-0.248C48.371,22.188,49.996,21.39,51.993,20.913z M31.294,39.708
						c-0.439,0.078-0.9,0.13-1.2-0.118C30.743,39.313,30.917,39.641,31.294,39.708l0.58-0.092
						C31.62,39.725,31.444,39.734,31.294,39.708z M34.721,37.9c-0.455,0.267-1.127,0.272-1.113-0.205l-0.019,0.667
						c-0.218,0.026-0.501,0.123-0.877,0.036l1.331,0.28c-0.05-0.141-0.107-0.217-0.176-0.264c0.737-0.157,1.588-0.023,2.176,0.112
						C35.829,38.264,34.596,38.325,34.721,37.9z M35.407,37.42l-0.231,0.213c-0.556-0.103-0.081-1.005-0.982-0.788
						C35.215,36.361,34.74,37.264,35.407,37.42z M39.087,38.147l-0.25-0.157c-0.368,0.013-0.979,0.257-0.64-0.403l0.64,0.403
						C38.979,37.986,39.089,38.013,39.087,38.147z M37.979,37.326l-1.331-0.287l0.999,0.136L37.979,37.326z M38.782,36.403
						l-1.224-0.235C38.225,36.31,38.568,35.824,38.782,36.403z M41.18,37.553c-0.383,0.707,0.364,0.509,0.991,0.255
						C42.176,37.29,41.426,37.661,41.18,37.553z M46.284,35.287c-0.575,0.267-1.262,0.49-0.938-0.178
						C45.581,35.194,46.264,34.811,46.284,35.287z"/>
					<path fill="#CCCCCC" d="M31.047,40.948l0.245-0.315c-0.96,0.618-0.58-0.741-1.323-0.003
						C30.342,40.743,30.887,40.782,31.047,40.948z"/>
					<path fill="#CCCCCC" d="M30.094,39.59c0.3,0.248,0.761,0.196,1.2,0.118C30.917,39.641,30.743,39.313,30.094,39.59z"/>
					<path fill="#CCCCCC" d="M31.874,39.615l-0.58,0.092C31.444,39.734,31.62,39.725,31.874,39.615z"/>
					<path fill="#CCCCCC" d="M38.837,37.99l0.25,0.157C39.089,38.013,38.979,37.986,38.837,37.99z"/>
					<path fill="#CCCCCC" d="M30.116,39.992l0.247-0.236c-0.284-0.063-0.378-0.256-0.455-0.433l-0.134,0.31
						C29.826,39.8,29.899,39.954,30.116,39.992z"/>
					<path fill="#CCCCCC" d="M29.817,40.778l0.085-0.173c-0.192-0.067-0.323-0.161-0.279-0.317l-0.275,0.125l-0.212,0.377
						L29.817,40.778z"/>
					<path fill="#CCCCCC" d="M29.969,40.63l-0.122,0.128l-0.013,0.021c0.443,0.025,0.867,0.098,1.208,0.176l0.005-0.008
						C30.887,40.782,30.342,40.743,29.969,40.63z"/>
					<path fill="#CCCCCC" d="M40.99,29.246c0.144,0.393-0.424,0.651-0.651,0.72c0.052,1.062,0.993,0.323,1.808-0.037
						C41.36,30.007,42.061,28.851,40.99,29.246z"/>
					<path fill="#CCCCCC" d="M44.656,28.672l0.119,0.271c-0.826-0.286-1.63,0.549-2.282,0.11l0.17,0.714
						c0.282-0.033,0.513,0.064,0.627,0.431l0.385-1l0.87,0.648c-0.324-0.89,1.356-1.062,0.295-1.25L44.656,28.672z"/>
					<path fill="#CCCCCC" d="M42.147,29.93c0.131-0.014,0.292-0.053,0.519-0.146l-0.003-0.015L42.147,29.93z"/>
					<polygon fill="#CCCCCC" points="32.798,39.495 31.71,39.331 32.911,39.608 32.924,39.554 					"/>
					<path fill="#CCCCCC" d="M33.589,38.362c-0.218,0.026-0.501,0.123-0.877,0.036l1.331,0.28c-0.05-0.141-0.107-0.217-0.176-0.264
						l-0.283,0.076L33.589,38.362z"/>
					<path fill="#CCCCCC" d="M42.17,37.809c0.006-0.519-0.745-0.147-0.991-0.255C40.797,38.26,41.543,38.062,42.17,37.809z"/>
					<polygon fill="#CCCCCC" points="47.274,35.153 46.288,35.18 46.69,35.743 47.357,35.654 					"/>
					<path fill="#CCCCCC" d="M44.889,23.201c-0.216,0.01-0.445,0.043-0.672,0.178l0.073,0.009l0.575-0.179L44.889,23.201z"/>
					<path fill="#CCCCCC" d="M31.292,40.633l-0.245,0.315l0.017,0.011l-0.021-0.003l-0.204,0.265
						c0.444-0.109,0.57-0.856,1.794-0.923c-0.429-0.688-0.901,0.541-1.328-0.142l-0.12,0.424c-0.675,0.329-0.771-0.358-0.66-0.308
						c-0.324,0.006-0.519,0.182-0.622,0.333l0.067,0.025C30.712,39.892,30.332,41.251,31.292,40.633z"/>
					<path fill="#CCCCCC" d="M29.834,40.78l-0.017-0.001C29.805,40.817,29.812,40.822,29.834,40.78z"/>
					<polygon fill="#CCCCCC" points="31.047,40.948 31.042,40.956 31.064,40.959 					"/>
					<polygon fill="#CCCCCC" points="29.834,40.78 29.847,40.758 29.969,40.63 29.902,40.605 29.817,40.778 					"/>
					<path fill="#CCCCCC" d="M34.194,36.845c0.901-0.217,0.426,0.686,0.982,0.788l0.231-0.213
						C34.74,37.264,35.215,36.361,34.194,36.845z"/>
					<path fill="#CCCCCC" d="M34.721,37.9c-0.455,0.267-1.127,0.272-1.113-0.205l-0.019,0.667c0.107-0.013,0.2-0.004,0.278,0.052
						c0.737-0.157,1.588-0.023,2.176,0.112C35.829,38.264,34.596,38.325,34.721,37.9z"/>
					<path fill="#CCCCCC" d="M33.589,38.362l-0.005,0.128l0.283-0.076C33.79,38.358,33.697,38.35,33.589,38.362z"/>
					<path fill="#CCCCCC" d="M44.628,27.533c0.16,0.346-0.316,0.617-0.511,0.693l0,0c0.452-0.131,0.769-0.009,1.033,0.199
						l0.569-0.348C45.025,28.199,45.537,27.107,44.628,27.533z"/>
					<path fill="#CCCCCC" d="M44.116,28.226c0.066,0.454,0.268,0.533,0.54,0.446l-0.049-0.111l0.234,0.037l0.309-0.173
						C44.885,28.217,44.568,28.095,44.116,28.226z"/>
					<polygon fill="#CCCCCC" points="44.656,28.672 44.841,28.598 44.606,28.561 					"/>
					<path fill="#CCCCCC" d="M47.786,26.668l0.196,0.331c-0.724-0.157-1.427,0.607-2.039,0.267l0.222,0.633
						c0.249-0.05,0.468,0.021,0.604,0.344l0.264-0.917l0.704,0.431l0.103-0.055C47.67,26.978,49.057,26.701,47.786,26.668z"/>
					<polygon fill="#CCCCCC" points="47.893,27.849 47.84,27.701 47.737,27.756 					"/>
					<path fill="#CCCCCC" d="M46.169,27.91l-0.003-0.011l-0.447,0.179C45.833,28.056,45.974,28.01,46.169,27.91z"/>
					<polygon fill="#CCCCCC" points="37.979,37.326 37.647,37.175 36.648,37.039 					"/>
					<path fill="#CCCCCC" d="M37.558,36.167l1.224,0.235C38.568,35.824,38.225,36.31,37.558,36.167z"/>
					<path fill="#CCCCCC" d="M46.284,35.287c-0.02-0.477-0.703-0.093-0.938-0.178C45.021,35.777,45.709,35.554,46.284,35.287z"/>
					<path fill="#CCCCCC" d="M50.91,33.464l0.448-0.413L50.91,33.464z"/>
					<path fill="#CCCCCC" d="M51.357,33.051l0.226-0.237c0.022-0.138,0.063-0.315,0.149-0.571c-0.582,0.178-1.191,0.214-1.784,0.283
						l0.846,0.965l-0.699,0.306c0.111,0.027,0.443-0.143,0.744-0.268l0.07-0.065L51.357,33.051z"/>
					<path fill="#CCCCCC" d="M41.844,24.332c-0.198,0.012-0.411,0.043-0.608,0.166l0.067,0.008l0.521-0.167L41.844,24.332z"/>
				</g>
			</g>
		</g>
	</g>
</g>
</svg>
